<svg width="99" height="75" viewBox="0 0 99 75" fill="none" xmlns="http://www.w3.org/2000/svg">
<path d="M52.1914 45.7447H96.8723V71.4681C96.8723 73.1249 95.5291 74.4681 93.8723 74.4681H52.1914V45.7447Z" fill="#918FC8"/>
<path d="M3.25513 5.31915H53.2551V74.4681H6.25513C4.59827 74.4681 3.25513 73.1249 3.25513 71.4681V5.31915Z" fill="#3D3B8A"/>
<rect x="0.0637207" width="56.383" height="6.38298" rx="1" fill="#252374"/>
<path d="M52.1914 40.4255H97.9999C98.5522 40.4255 98.9999 40.8733 98.9999 41.4255V45.8085C98.9999 46.3608 98.5522 46.8085 97.9999 46.8085H52.1914V40.4255Z" fill="#3D3B8A"/>
<path d="M23 55C23 54.4477 23.4477 54 24 54H33C33.5523 54 34 54.4477 34 55V74H23V55Z" fill="#918FC8"/>
<rect x="9.5105" y="11.6383" width="9" height="9" rx="1" fill="#918FC8"/>
<rect x="24.0105" y="11.6383" width="9" height="9" rx="1" fill="#918FC8"/>
<rect x="38.5105" y="11.6383" width="9" height="9" rx="1" fill="#918FC8"/>
<rect x="9.5105" y="25.6383" width="9" height="9" rx="1" fill="#918FC8"/>
<rect x="24.0105" y="25.6383" width="9" height="9" rx="1" fill="#918FC8"/>
<rect x="38.5105" y="25.6383" width="9" height="9" rx="1" fill="#918FC8"/>
<rect x="9.5105" y="39.6383" width="9" height="9" rx="1" fill="#918FC8"/>
<rect x="24.0105" y="39.6383" width="9" height="9" rx="1" fill="#918FC8"/>
<rect x="38.5105" y="39.6383" width="9" height="9" rx="1" fill="#918FC8"/>
<rect x="9.5105" y="53.6383" width="9" height="9" rx="1" fill="#918FC8"/>
<rect x="38.5105" y="53.6383" width="9" height="9" rx="1" fill="#918FC8"/>
<path d="M59.6382 56.9149C59.6382 54.8585 61.3052 53.1915 63.3616 53.1915C65.418 53.1915 67.085 54.8585 67.085 56.9149V65.1596C67.085 65.6002 66.7278 65.9574 66.2871 65.9574H60.4361C59.9954 65.9574 59.6382 65.6002 59.6382 65.1596V56.9149Z" fill="#252374"/>
<path d="M71.3403 56.9149C71.3403 54.8585 73.0074 53.1915 75.0637 53.1915C77.1201 53.1915 78.7871 54.8585 78.7871 56.9149V65.1596C78.7871 65.6002 78.4299 65.9574 77.9893 65.9574H72.1382C71.6976 65.9574 71.3403 65.6002 71.3403 65.1596V56.9149Z" fill="#252374"/>
<path d="M83.0425 56.9149C83.0425 54.8585 84.7095 53.1915 86.7659 53.1915C88.8223 53.1915 90.4893 54.8585 90.4893 56.9149V65.1596C90.4893 65.6002 90.1321 65.9574 89.6914 65.9574H83.8404C83.3997 65.9574 83.0425 65.6002 83.0425 65.1596V56.9149Z" fill="#252374"/>
</svg>
