<svg width="103" height="79" viewBox="0 0 103 79" fill="none" xmlns="http://www.w3.org/2000/svg">
<path d="M55.1914 8.38298V6.38298C54.0868 6.38298 53.1914 7.27841 53.1914 8.38298H55.1914ZM55.1914 42.4255H53.1914C53.1914 43.5301 54.0868 44.4255 55.1914 44.4255V42.4255ZM98.8085 48.8085V46.8085C97.704 46.8085 96.8085 47.7039 96.8085 48.8085H98.8085ZM98.8085 76.468V78.468C99.339 78.468 99.8477 78.2573 100.223 77.8822C100.598 77.5072 100.809 76.9985 100.809 76.468H98.8085ZM55.1914 76.468V74.468H55.1914L55.1914 76.468ZM54.1277 76.468V78.468H54.1277L54.1277 76.468ZM5.19141 76.468H3.19141C3.19141 77.5726 4.08684 78.468 5.19141 78.468L5.19141 76.468ZM5.19141 8.38298H7.19141C7.19141 7.27841 6.29598 6.38298 5.19141 6.38298V8.38298ZM2.22461 0.10168C1.15751 0.386923 0.523682 1.48322 0.808925 2.55032C1.09417 3.61742 2.19046 4.25125 3.25756 3.966L2.22461 0.10168ZM3.966 3.25756C4.25125 2.19046 3.61742 1.09417 2.55032 0.808924C1.48322 0.523682 0.386923 1.15751 0.10168 2.22461L3.966 3.25756ZM0 3.7305C0 4.83507 0.89543 5.7305 2 5.7305C3.10457 5.7305 4 4.83507 4 3.7305H0ZM4 6.65248C4 5.54791 3.10457 4.65248 2 4.65248C0.89543 4.65248 0 5.54791 0 6.65248H4ZM0.10168 8.15837C0.386922 9.22547 1.48322 9.8593 2.55032 9.57405C3.61742 9.28881 4.25125 8.19252 3.966 7.12542L0.10168 8.15837ZM3.25756 6.41697C2.19046 6.13173 1.09417 6.76556 0.808924 7.83266C0.523682 8.89976 1.15751 9.99606 2.22461 10.2813L3.25756 6.41697ZM3.36523 10.383C4.4698 10.383 5.36523 9.48755 5.36523 8.38298C5.36523 7.27841 4.4698 6.38298 3.36523 6.38298V10.383ZM4.82617 6.38298C3.7216 6.38298 2.82617 7.27841 2.82617 8.38298C2.82617 9.48755 3.7216 10.383 4.82617 10.383V6.38298ZM3.19141 10.6525C3.19141 11.757 4.08684 12.6525 5.19141 12.6525C6.29598 12.6525 7.19141 11.757 7.19141 10.6525H3.19141ZM7.19141 19.7305C7.19141 18.6259 6.29598 17.7305 5.19141 17.7305C4.08684 17.7305 3.19141 18.6259 3.19141 19.7305H7.19141ZM3.19141 24.2695C3.19141 25.3741 4.08684 26.2695 5.19141 26.2695C6.29598 26.2695 7.19141 25.3741 7.19141 24.2695H3.19141ZM7.19141 33.3475C7.19141 32.2429 6.29598 31.3475 5.19141 31.3475C4.08684 31.3475 3.19141 32.2429 3.19141 33.3475H7.19141ZM3.19141 37.8865C3.19141 38.9911 4.08684 39.8865 5.19141 39.8865C6.29598 39.8865 7.19141 38.9911 7.19141 37.8865H3.19141ZM7.19141 46.9645C7.19141 45.8599 6.29598 44.9645 5.19141 44.9645C4.08684 44.9645 3.19141 45.8599 3.19141 46.9645H7.19141ZM3.19141 51.5035C3.19141 52.6081 4.08684 53.5035 5.19141 53.5035C6.29598 53.5035 7.19141 52.6081 7.19141 51.5035H3.19141ZM7.19141 60.5815C7.19141 59.4769 6.29598 58.5815 5.19141 58.5815C4.08684 58.5815 3.19141 59.4769 3.19141 60.5815H7.19141ZM3.19141 65.1205C3.19141 66.2251 4.08684 67.1205 5.19141 67.1205C6.29598 67.1205 7.19141 66.2251 7.19141 65.1205H3.19141ZM7.19141 74.1985C7.19141 73.0939 6.29598 72.1985 5.19141 72.1985C4.08684 72.1985 3.19141 73.0939 3.19141 74.1985H7.19141ZM7.91009 78.468C9.01466 78.468 9.91009 77.5726 9.91009 76.468C9.91009 75.3635 9.01466 74.468 7.91009 74.468L7.91009 78.468ZM18.7848 74.468C17.6802 74.468 16.7848 75.3635 16.7848 76.468C16.7848 77.5726 17.6802 78.468 18.7848 78.468L18.7848 74.468ZM24.2222 78.468C25.3268 78.468 26.2222 77.5726 26.2222 76.468C26.2222 75.3635 25.3268 74.468 24.2222 74.468V78.468ZM35.0969 74.468C33.9923 74.468 33.0969 75.3635 33.0969 76.468C33.0969 77.5726 33.9923 78.468 35.0969 78.468V74.468ZM40.5343 78.468C41.6388 78.468 42.5343 77.5726 42.5343 76.468C42.5343 75.3635 41.6389 74.468 40.5343 74.468V78.468ZM51.409 74.468C50.3044 74.468 49.409 75.3635 49.409 76.468C49.409 77.5726 50.3044 78.468 51.409 78.468V74.468ZM54.305 78.468C55.4096 78.468 56.305 77.5726 56.305 76.468C56.305 75.3634 55.4095 74.468 54.305 74.468L54.305 78.468ZM55.0141 74.468C53.9095 74.468 53.0141 75.3635 53.0141 76.468C53.0141 77.5726 53.9096 78.468 55.0141 78.468L55.0141 74.468ZM57.6146 78.468C58.7192 78.468 59.6146 77.5726 59.6146 76.468C59.6146 75.3635 58.7192 74.468 57.6146 74.468L57.6146 78.468ZM67.3073 74.468C66.2027 74.468 65.3073 75.3635 65.3073 76.468C65.3073 77.5726 66.2027 78.468 67.3073 78.468V74.468ZM72.1536 78.468C73.2582 78.468 74.1536 77.5726 74.1536 76.468C74.1536 75.3635 73.2582 74.468 72.1536 74.468V78.468ZM81.8463 74.468C80.7417 74.468 79.8463 75.3635 79.8463 76.468C79.8463 77.5726 80.7417 78.468 81.8463 78.468V74.468ZM86.6927 78.468C87.7972 78.468 88.6927 77.5726 88.6927 76.468C88.6927 75.3635 87.7972 74.468 86.6927 74.468V78.468ZM96.3854 74.468C95.2808 74.468 94.3854 75.3635 94.3854 76.468C94.3854 77.5726 95.2808 78.468 96.3854 78.468V74.468ZM100.809 74.1631C100.809 73.0585 99.9131 72.1631 98.8085 72.1631C97.704 72.1631 96.8085 73.0585 96.8085 74.1631H100.809ZM96.8085 64.9432C96.8085 66.0478 97.704 66.9432 98.8085 66.9432C99.9131 66.9432 100.809 66.0478 100.809 64.9432H96.8085ZM100.809 60.3333C100.809 59.2287 99.9131 58.3333 98.8085 58.3333C97.704 58.3333 96.8085 59.2287 96.8085 60.3333H100.809ZM96.8085 51.1135C96.8085 52.218 97.704 53.1135 98.8085 53.1135C99.9131 53.1135 100.809 52.218 100.809 51.1135H96.8085ZM98.9965 50.8085C100.101 50.8085 100.996 49.9131 100.996 48.8085C100.996 47.7039 100.101 46.8085 98.9965 46.8085V50.8085ZM99.7483 46.8085C98.6437 46.8085 97.7483 47.7039 97.7483 48.8085C97.7483 49.9131 98.6437 50.8085 99.7483 50.8085V46.8085ZM100.712 50.7068C101.779 50.4216 102.413 49.3253 102.127 48.2582C101.842 47.1911 100.746 46.5573 99.6786 46.8425L100.712 50.7068ZM98.9702 47.551C98.6849 48.6181 99.3188 49.7143 100.386 49.9996C101.453 50.2848 102.549 49.651 102.835 48.5839L98.9702 47.551ZM102.936 47.078C102.936 45.9734 102.041 45.078 100.936 45.078C99.8316 45.078 98.9362 45.9734 98.9362 47.078H102.936ZM98.9362 44.156C98.9362 45.2606 99.8316 46.156 100.936 46.156C102.041 46.156 102.936 45.2606 102.936 44.156H98.9362ZM102.835 42.6501C102.549 41.583 101.453 40.9492 100.386 41.2345C99.3188 41.5197 98.6849 42.616 98.9702 43.6831L102.835 42.6501ZM99.6786 44.3915C100.746 44.6768 101.842 44.043 102.127 42.9759C102.413 41.9088 101.779 40.8125 100.712 40.5272L99.6786 44.3915ZM97.4504 40.4255C96.3458 40.4255 95.4504 41.321 95.4504 42.4255C95.4504 43.5301 96.3458 44.4255 97.4504 44.4255V40.4255ZM87.5071 44.4255C88.6117 44.4255 89.5071 43.5301 89.5071 42.4255C89.5071 41.321 88.6117 40.4255 87.5071 40.4255V44.4255ZM82.5354 40.4255C81.4309 40.4255 80.5354 41.321 80.5354 42.4255C80.5354 43.5301 81.4309 44.4255 82.5354 44.4255V40.4255ZM72.5922 44.4255C73.6967 44.4255 74.5922 43.5301 74.5922 42.4255C74.5922 41.321 73.6967 40.4255 72.5922 40.4255V44.4255ZM67.6205 40.4255C66.5159 40.4255 65.6205 41.321 65.6205 42.4255C65.6205 43.5301 66.5159 44.4255 67.6205 44.4255V40.4255ZM57.6772 44.4255C58.7818 44.4255 59.6772 43.5301 59.6772 42.4255C59.6772 41.321 58.7818 40.4255 57.6772 40.4255V44.4255ZM57.1914 39.5887C57.1914 38.4841 56.296 37.5887 55.1914 37.5887C54.0868 37.5887 53.1914 38.4841 53.1914 39.5887H57.1914ZM53.1914 28.2411C53.1914 29.3457 54.0868 30.2411 55.1914 30.2411C56.296 30.2411 57.1914 29.3457 57.1914 28.2411H53.1914ZM57.1914 22.5674C57.1914 21.4628 56.296 20.5674 55.1914 20.5674C54.0868 20.5674 53.1914 21.4628 53.1914 22.5674H57.1914ZM53.1914 11.2199C53.1914 12.3244 54.0868 13.2199 55.1914 13.2199C56.296 13.2199 57.1914 12.3244 57.1914 11.2199H53.1914ZM55.5567 10.383C56.6612 10.383 57.5567 9.48755 57.5567 8.38298C57.5567 7.27841 56.6612 6.38298 55.5567 6.38298V10.383ZM57.0177 6.38298C55.9131 6.38298 55.0177 7.27841 55.0177 8.38298C55.0177 9.48755 55.9131 10.383 57.0177 10.383V6.38298ZM58.1584 10.2813C59.2255 9.99606 59.8593 8.89976 59.5741 7.83266C59.2888 6.76555 58.1925 6.13173 57.1254 6.41697L58.1584 10.2813ZM56.417 7.12541C56.1317 8.19252 56.7656 9.28881 57.8327 9.57405C58.8998 9.8593 59.9961 9.22547 60.2813 8.15837L56.417 7.12541ZM60.383 6.65248C60.383 5.54791 59.4875 4.65248 58.383 4.65248C57.2784 4.65248 56.383 5.54791 56.383 6.65248H60.383ZM56.383 3.7305C56.383 4.83507 57.2784 5.7305 58.383 5.7305C59.4875 5.7305 60.383 4.83507 60.383 3.7305H56.383ZM60.2813 2.22461C59.9961 1.15751 58.8998 0.523682 57.8327 0.808925C56.7656 1.09417 56.1317 2.19046 56.417 3.25756L60.2813 2.22461ZM57.1254 3.966C58.1925 4.25125 59.2888 3.61742 59.5741 2.55032C59.8593 1.48322 59.2255 0.386923 58.1584 0.101681L57.1254 3.966ZM55.117 0C54.0125 0 53.117 0.89543 53.117 2C53.117 3.10457 54.0125 4 55.117 4V0ZM46.0532 4C47.1578 4 48.0532 3.10457 48.0532 2C48.0532 0.89543 47.1578 0 46.0532 0V4ZM41.5213 0C40.4167 0 39.5213 0.89543 39.5213 2C39.5213 3.10457 40.4167 4 41.5213 4V0ZM32.4574 4C33.562 4 34.4574 3.10457 34.4574 2C34.4574 0.89543 33.562 0 32.4574 0V4ZM27.9255 0C26.821 0 25.9255 0.89543 25.9255 2C25.9255 3.10457 26.821 4 27.9255 4V0ZM18.8617 4C19.9663 4 20.8617 3.10457 20.8617 2C20.8617 0.89543 19.9663 0 18.8617 0V4ZM14.3298 0C13.2252 0 12.3298 0.89543 12.3298 2C12.3298 3.10457 13.2252 4 14.3298 4V0ZM5.26596 4C6.37052 4 7.26596 3.10457 7.26596 2C7.26596 0.89543 6.37052 0 5.26596 0V4ZM3 0C2.73453 0 2.47415 0.0349773 2.22461 0.10168L3.25756 3.966C3.17319 3.98856 3.08639 4 3 4V0ZM0.10168 2.22461C0.0349773 2.47415 0 2.73452 0 3H4C4 3.08639 3.98856 3.17319 3.966 3.25756L0.10168 2.22461ZM0 3V3.7305H4V3H0ZM0 6.65248V7.38298H4V6.65248H0ZM0 7.38298C0 7.64845 0.0349773 7.90883 0.10168 8.15837L3.966 7.12542C3.98856 7.20979 4 7.29659 4 7.38298H0ZM2.22461 10.2813C2.47415 10.348 2.73452 10.383 3 10.383V6.38298C3.08639 6.38298 3.17319 6.39442 3.25756 6.41697L2.22461 10.2813ZM3 10.383H3.36523V6.38298H3V10.383ZM4.82617 10.383H5.19141V6.38298H4.82617V10.383ZM3.19141 8.38298V10.6525H7.19141V8.38298H3.19141ZM3.19141 19.7305V24.2695H7.19141V19.7305H3.19141ZM3.19141 33.3475V37.8865H7.19141V33.3475H3.19141ZM3.19141 46.9645V51.5035H7.19141V46.9645H3.19141ZM3.19141 60.5815V65.1205H7.19141V60.5815H3.19141ZM3.19141 74.1985V76.468H7.19141V74.1985H3.19141ZM5.19141 78.468H7.91009L7.91009 74.468H5.19141L5.19141 78.468ZM18.7848 78.468H24.2222V74.468H18.7848L18.7848 78.468ZM35.0969 78.468H40.5343V74.468H35.0969V78.468ZM51.409 78.468H54.1277V74.468H51.409V78.468ZM54.1277 78.468H54.305L54.305 74.468H54.1277L54.1277 78.468ZM55.0141 78.468H55.1914L55.1914 74.468H55.0141L55.0141 78.468ZM55.1914 78.468H57.6146L57.6146 74.468H55.1914V78.468ZM67.3073 78.468H72.1536V74.468H67.3073V78.468ZM81.8463 78.468H86.6927V74.468H81.8463V78.468ZM96.3854 78.468H98.8085V74.468H96.3854V78.468ZM100.809 76.468V74.1631H96.8085V76.468H100.809ZM100.809 64.9432V60.3333H96.8085V64.9432H100.809ZM100.809 51.1135V48.8085H96.8085V51.1135H100.809ZM98.8085 50.8085H98.9965V46.8085H98.8085V50.8085ZM99.7483 50.8085H99.9362V46.8085H99.7483V50.8085ZM99.9362 50.8085C100.202 50.8085 100.462 50.7735 100.712 50.7068L99.6786 46.8425C99.763 46.82 99.8498 46.8085 99.9362 46.8085V50.8085ZM102.835 48.5839C102.901 48.3344 102.936 48.074 102.936 47.8085H98.9362C98.9362 47.7221 98.9476 47.6353 98.9702 47.551L102.835 48.5839ZM102.936 47.8085V47.078H98.9362V47.8085H102.936ZM102.936 44.156V43.4255H98.9362V44.156H102.936ZM102.936 43.4255C102.936 43.1601 102.901 42.8997 102.835 42.6501L98.9702 43.6831C98.9476 43.5987 98.9362 43.5119 98.9362 43.4255H102.936ZM100.712 40.5272C100.462 40.4605 100.202 40.4255 99.9362 40.4255V44.4255C99.8498 44.4255 99.763 44.4141 99.6786 44.3915L100.712 40.5272ZM99.9362 40.4255H97.4504V44.4255H99.9362V40.4255ZM87.5071 40.4255H82.5354V44.4255H87.5071V40.4255ZM72.5922 40.4255H67.6205V44.4255H72.5922V40.4255ZM57.6772 40.4255H55.1914V44.4255H57.6772V40.4255ZM57.1914 42.4255V39.5887H53.1914V42.4255H57.1914ZM57.1914 28.2411V22.5674H53.1914V28.2411H57.1914ZM57.1914 11.2199V8.38298H53.1914V11.2199H57.1914ZM55.1914 10.383H55.5567V6.38298H55.1914V10.383ZM57.0177 10.383H57.383V6.38298H57.0177V10.383ZM57.383 10.383C57.6485 10.383 57.9088 10.348 58.1584 10.2813L57.1254 6.41697C57.2098 6.39442 57.2966 6.38298 57.383 6.38298V10.383ZM60.2813 8.15837C60.348 7.90883 60.383 7.64845 60.383 7.38298H56.383C56.383 7.29658 56.3944 7.20979 56.417 7.12541L60.2813 8.15837ZM60.383 7.38298V6.65248H56.383V7.38298H60.383ZM60.383 3.7305V3H56.383V3.7305H60.383ZM60.383 3C60.383 2.73452 60.348 2.47415 60.2813 2.22461L56.417 3.25756C56.3944 3.17319 56.383 3.08639 56.383 3H60.383ZM58.1584 0.101681C57.9088 0.0349774 57.6485 0 57.383 0V4C57.2966 4 57.2098 3.98856 57.1254 3.966L58.1584 0.101681ZM57.383 0H55.117V4H57.383V0ZM46.0532 0H41.5213V4H46.0532V0ZM32.4574 0H27.9255V4H32.4574V0ZM18.8617 0H14.3298V4H18.8617V0ZM5.26596 0H3V4H5.26596V0Z" fill="black"/>
</svg>
