
<svg xmlns="http://www.w3.org/2000/svg" viewBox="0 0 176 42">
  <g fill="none" fill-rule="evenodd">
    <path fill="#000" fill-rule="nonzero" d="M38.994 24.18c.136 4.866-1.966 8.502-6.107 10.834-5.744 3.222-11.903 5.184-18.572 4.97A10.344 10.344 0 0 1 5.58 34.91C1.805 28.88-.225 22.27.02 15.114c.129-3.753 2.066-6.71 5.226-8.647C11.212 2.81 17.688.785 24.743 1.018c3.799.145 6.757 2.11 8.76 5.308 3.416 5.45 5.008 11.49 5.49 17.854Z"/>
    <path fill="#FFF" fill-rule="nonzero" d="M22.714 28.613a7.778 7.778 0 0 1-4.614.266c-3.6-.97-6.21-4.272-6.21-7.86a7.963 7.963 0 0 1 2.365-5.797 8.09 8.09 0 0 1 5.543-2.338h.077c3.793.041 6.198 2.907 6.218 2.935a.945.945 0 1 0 1.453-1.193c-.12-.143-2.966-3.577-7.662-3.626a9.928 9.928 0 0 0-7.028 2.955 9.912 9.912 0 0 0-2.855 7.063c0 4.427 3.198 8.498 7.608 9.68.758.202 1.54.303 2.324.302a10.042 10.042 0 0 0 3.432-.617c2.9-1.059 5.727-3.85 5.633-7.076a18.93 18.93 0 0 1-2.07 1.304c-.569 1.77-2.352 3.323-4.214 4.002Z"/>
    <path fill="#FFF" fill-rule="nonzero" d="M28.48 18.264a13.892 13.892 0 0 1-1.903 1.536 7.012 7.012 0 0 0-4.395-1.579c-1.107 0-1.955.27-2.519.805a2.1 2.1 0 0 0-.662 1.597c.02 1.119.876 2.327 3.22 2.377a8.303 8.303 0 0 0 3.71-.902c.555-.265 1.088-.57 1.594-.912a15.333 15.333 0 0 0 2.24-1.803.787.787 0 0 0-.047-1.164.922.922 0 0 0-1.242.045h.004Zm-6.218 3.09c-.677 0-1.491-.157-1.499-.756a.511.511 0 0 1 .156-.417c.122-.117.453-.317 1.267-.317a5.523 5.523 0 0 1 2.805.841 6.271 6.271 0 0 1-2.729.649Z"/>
    <path fill="#080B0E" fill-rule="nonzero" d="M176 22.273V10.12c0-.582-.475-1.055-1.06-1.055-.586 0-1.06.473-1.06 1.055V22.3c0 .26.071 6.397-6.845 6.594-6.818-.19-6.917-5.954-6.917-6.622V10.12a1.053 1.053 0 0 0-.51-.967 1.065 1.065 0 0 0-1.097 0 1.053 1.053 0 0 0-.509.967v12.13c0 .087-.095 8.494 9.025 8.751 9.06-.257 8.973-8.664 8.973-8.727Zm-28.004-6.554c-.209-6.758-6.248-6.73-8.255-6.718h-8.668a1.07 1.07 0 0 0-.758.311c-.202.2-.314.472-.313.755v19.802c-.024.396.174.772.515.977.34.205.768.205 1.109 0 .34-.205.54-.581.515-.977V11.133h7.724c4.158 0 5.896 1.353 5.996 4.654a4.028 4.028 0 0 1-1.204 3.021 7.635 7.635 0 0 1-3.226 1.825l-.887-1.198c-.401-.503-1.469-1.692-2.978-1.82h-1.573a2.802 2.802 0 0 0-2.809 2.794 2.802 2.802 0 0 0 2.81 2.794h2.379c.26 0 .538 0 .803-.036l-1.545-2.091h-1.654a.672.672 0 0 1-.622-.669c0-.35.271-.642.622-.669h1.425c.584.15 1.093.507 1.432 1.002l.233.308 1.477 1.98 5.518 7.476c.358.448 1.01.535 1.473.196.465-.34.576-.983.252-1.458l-5.028-6.81a9.237 9.237 0 0 0 3.44-2.143 6.157 6.157 0 0 0 1.797-4.57ZM119 10.119c0-.377-.202-.725-.53-.913a1.066 1.066 0 0 0-1.06 0 1.051 1.051 0 0 0-.531.913V22.3c0 .26.071 6.397-6.848 6.594-6.816-.19-6.924-5.923-6.912-6.622V10.12a1.053 1.053 0 0 0-.51-.967 1.066 1.066 0 0 0-1.097 0 1.053 1.053 0 0 0-.51.967v12.13c0 .087-.095 8.494 9.029 8.751 9.06-.257 8.969-8.664 8.969-8.727V10.12ZM83.05 28.357a8.614 8.614 0 0 1-5.09.288c-3.976-1.063-6.861-4.694-6.861-8.641a8.71 8.71 0 0 1 2.615-6.376 8.95 8.95 0 0 1 6.114-2.553h.082c4.196.042 6.854 3.195 6.877 3.226a1.05 1.05 0 0 0 1.453.13c.44-.356.514-.995.168-1.441-.133-.16-3.28-3.936-8.475-3.99a10.99 10.99 0 0 0-7.776 3.246A10.867 10.867 0 0 0 69 20.023c0 4.866 3.523 9.342 8.408 10.646a9.84 9.84 0 0 0 2.563.331 11.103 11.103 0 0 0 3.797-.677c3.206-1.168 6.342-4.235 6.228-7.785-.732.523-1.497 1-2.29 1.428-.607 1.935-2.599 3.64-4.658 4.391Z"/>
    <path fill="#080B0E" fill-rule="nonzero" d="M92.029 17.394a18.138 18.138 0 0 1-2.414 2.15c-1.489-1.492-3.865-2.205-5.58-2.205-1.406 0-2.48.378-3.196 1.126a3.054 3.054 0 0 0-.837 2.221c.021 1.556 1.109 3.245 4.087 3.314a9.786 9.786 0 0 0 4.706-1.26 14.85 14.85 0 0 0 2.02-1.267 19.778 19.778 0 0 0 2.858-2.514 1.17 1.17 0 0 0 .28-1.138 1.13 1.13 0 0 0-.838-.796 1.1 1.1 0 0 0-1.082.378l-.004-.009Zm-7.898 4.298c-.862 0-1.89-.219-1.903-1.057a.747.747 0 0 1 .196-.58c.16-.164.577-.43 1.61-.43a6.539 6.539 0 0 1 3.56 1.173 7.416 7.416 0 0 1-3.463.903v-.009Z"/>
    <path stroke="#231F20" stroke-linecap="round" stroke-width="1.9" d="M55.5 1v40"/>
  </g>
</svg>