<svg width="300" height="269" viewBox="0 0 300 269" fill="none" xmlns="http://www.w3.org/2000/svg">
<path d="M296.41 9.45644C283.814 -4.77701 147.681 5.67185 147.681 5.67185C147.681 5.67185 179.626 42.8608 193.218 49.0501C204.627 54.2455 242.786 54.4516 242.786 54.4516C242.786 54.4516 232.971 87.9883 235.32 99.226C237.985 111.976 264.237 150.023 264.237 150.023C264.237 150.023 309.006 23.6899 296.41 9.45644Z" fill="#0B6DA1"/>
<path d="M296.41 9.45644C283.814 -4.77701 147.681 5.67185 147.681 5.67185C147.681 5.67185 179.626 42.8608 193.218 49.0501C204.627 54.2455 242.786 54.4516 242.786 54.4516C242.786 54.4516 232.971 87.9883 235.32 99.226C237.985 111.976 264.237 150.023 264.237 150.023C264.237 150.023 309.006 23.6899 296.41 9.45644Z" fill="url(#paint0_linear_15_2)" fill-opacity="0.2"/>
<path d="M296.41 9.45644C283.814 -4.77701 147.681 5.67185 147.681 5.67185C147.681 5.67185 179.626 42.8608 193.218 49.0501C204.627 54.2455 242.786 54.4516 242.786 54.4516C242.786 54.4516 232.971 87.9883 235.32 99.226C237.985 111.976 264.237 150.023 264.237 150.023C264.237 150.023 309.006 23.6899 296.41 9.45644Z" stroke="white" stroke-width="2"/>
<path d="M151.41 125.456C138.814 111.223 2.68126 121.672 2.68126 121.672C2.68126 121.672 34.626 158.861 48.2178 165.05C59.6269 170.246 97.7866 170.452 97.7866 170.452C97.7866 170.452 87.9712 203.988 90.3204 215.226C92.9857 227.976 119.237 266.023 119.237 266.023C119.237 266.023 164.006 139.69 151.41 125.456Z" fill="#0B6DA1"/>
<path d="M151.41 125.456C138.814 111.223 2.68126 121.672 2.68126 121.672C2.68126 121.672 34.626 158.861 48.2178 165.05C59.6269 170.246 97.7866 170.452 97.7866 170.452C97.7866 170.452 87.9712 203.988 90.3204 215.226C92.9857 227.976 119.237 266.023 119.237 266.023C119.237 266.023 164.006 139.69 151.41 125.456Z" fill="url(#paint1_linear_15_2)" fill-opacity="0.2"/>
<path d="M151.41 125.456C138.814 111.223 2.68126 121.672 2.68126 121.672C2.68126 121.672 34.626 158.861 48.2178 165.05C59.6269 170.246 97.7866 170.452 97.7866 170.452C97.7866 170.452 87.9712 203.988 90.3204 215.226C92.9857 227.976 119.237 266.023 119.237 266.023C119.237 266.023 164.006 139.69 151.41 125.456Z" stroke="white" stroke-width="2"/>
<path d="M224.41 66.4564C211.814 52.223 75.6813 62.6718 75.6813 62.6718C75.6813 62.6718 107.626 99.8608 121.218 106.05C132.627 111.246 170.787 111.452 170.787 111.452C170.787 111.452 160.971 144.988 163.32 156.226C165.986 168.976 192.237 207.023 192.237 207.023C192.237 207.023 237.006 80.6899 224.41 66.4564Z" fill="#0B6DA1"/>
<path d="M224.41 66.4564C211.814 52.223 75.6813 62.6718 75.6813 62.6718C75.6813 62.6718 107.626 99.8608 121.218 106.05C132.627 111.246 170.787 111.452 170.787 111.452C170.787 111.452 160.971 144.988 163.32 156.226C165.986 168.976 192.237 207.023 192.237 207.023C192.237 207.023 237.006 80.6899 224.41 66.4564Z" fill="url(#paint2_linear_15_2)" fill-opacity="0.2"/>
<path d="M224.41 66.4564C211.814 52.223 75.6813 62.6718 75.6813 62.6718C75.6813 62.6718 107.626 99.8608 121.218 106.05C132.627 111.246 170.787 111.452 170.787 111.452C170.787 111.452 160.971 144.988 163.32 156.226C165.986 168.976 192.237 207.023 192.237 207.023C192.237 207.023 237.006 80.6899 224.41 66.4564Z" stroke="white" stroke-width="2"/>
<defs>
<linearGradient id="paint0_linear_15_2" x1="204.458" y1="78.7808" x2="248.888" y2="41.4991" gradientUnits="userSpaceOnUse">
<stop stop-opacity="0"/>
<stop offset="0.0001" stop-color="#00BBFF"/>
<stop offset="1" stop-color="#7914E5"/>
</linearGradient>
<linearGradient id="paint1_linear_15_2" x1="59.4579" y1="194.781" x2="103.888" y2="157.499" gradientUnits="userSpaceOnUse">
<stop stop-opacity="0"/>
<stop offset="0.0001" stop-color="#00BBFF"/>
<stop offset="1" stop-color="#7914E5"/>
</linearGradient>
<linearGradient id="paint2_linear_15_2" x1="132.458" y1="135.781" x2="176.888" y2="98.4991" gradientUnits="userSpaceOnUse">
<stop stop-opacity="0"/>
<stop offset="0.0001" stop-color="#00BBFF"/>
<stop offset="1" stop-color="#7914E5"/>
</linearGradient>
</defs>
</svg>
