<svg width="95" height="104" viewBox="0 0 95 104" fill="none" xmlns="http://www.w3.org/2000/svg">
<path d="M40.4192 4.70472L38.527 4.05708V4.05708L40.4192 4.70472ZM54.045 4.94364L52.116 5.47182V5.47182L54.045 4.94364ZM55.5368 10.392L53.6078 10.9201C53.834 11.7465 54.5615 12.3369 55.4167 12.3883L55.5368 10.392ZM75.2176 13.6719L75.8327 11.7688L75.2176 13.6719ZM92.4977 32.1891L94.4977 32.1891L92.4977 32.1891ZM85.416 44.209L84.5229 42.4195L84.5229 42.4195L85.416 44.209ZM84.7672 44.5339L85.6676 46.3197L85.6677 46.3197L84.7672 44.5339ZM84.3756 44.6801L83.8129 42.7609C82.9508 43.0137 82.363 43.8103 82.3758 44.7086L84.3756 44.6801ZM77.5655 80.733L79.2194 81.8577L77.5655 80.733ZM53.1312 96.1176L52.6585 94.1743C52.1074 94.3084 51.6391 94.6701 51.3702 95.1694L53.1312 96.1176ZM40.4615 96.1176L42.2225 95.1695C41.9243 94.6157 41.383 94.2344 40.7611 94.1402L40.4615 96.1176ZM16.4796 80.733L18.126 79.5976L16.4796 80.733ZM9.18232 44.6287L11.1801 44.7238C11.2269 43.7388 10.549 42.8667 9.58291 42.6692L9.18232 44.6287ZM8.8256 44.5339L9.53443 42.6638L9.53441 42.6638L8.8256 44.5339ZM19.6471 13.6719L19.115 11.7439L19.6471 13.6719ZM38.4606 10.4273L38.6013 12.4224C39.4028 12.3659 40.0927 11.8352 40.3529 11.075L38.4606 10.4273ZM38.2006 5.01085C37.8429 6.0559 38.4001 7.19304 39.4452 7.55072C40.4902 7.9084 41.6274 7.35118 41.985 6.30612L38.2006 5.01085ZM40.6793 10.1212C41.037 9.07614 40.4797 7.939 39.4347 7.58132C38.3896 7.22364 37.2525 7.78086 36.8948 8.82592L40.6793 10.1212ZM35.0806 8.71234C33.9818 8.82538 33.1827 9.80773 33.2957 10.9065C33.4088 12.0053 34.3911 12.8044 35.4899 12.6913L35.0806 8.71234ZM23.2047 14.8139C24.278 14.5529 24.9364 13.4712 24.6754 12.3979C24.4143 11.3246 23.3326 10.6662 22.2593 10.9272L23.2047 14.8139ZM16.7978 12.4753C15.7572 12.8459 15.2142 13.9899 15.5848 15.0304C15.9554 16.0709 17.0994 16.614 18.1399 16.2434L16.7978 12.4753ZM10.6849 20.2631C11.5583 19.587 11.7182 18.3308 11.042 17.4573C10.3658 16.5839 9.10964 16.424 8.23622 17.1002L10.6849 20.2631ZM4.62582 20.4994C3.90363 21.3352 3.99571 22.5982 4.83149 23.3203C5.66726 24.0425 6.93024 23.9504 7.65243 23.1147L4.62582 20.4994ZM4.1572 30.2336C4.33372 29.1432 3.59289 28.1162 2.50251 27.9397C1.41214 27.7631 0.385122 28.504 0.208605 29.5943L4.1572 30.2336ZM0.10971 34.9067C0.204324 36.0072 1.17316 36.8226 2.27367 36.728C3.37418 36.6334 4.18962 35.6646 4.09501 34.5641L0.10971 34.9067ZM7.56747 41.741C6.62409 41.1664 5.39356 41.4654 4.819 42.4088C4.24444 43.3521 4.54342 44.5827 5.4868 45.1572L7.56747 41.741ZM8.27283 46.4586C9.32461 46.7959 10.4508 46.2168 10.7882 45.165C11.1255 44.1133 10.5464 42.9871 9.49465 42.6497L8.27283 46.4586ZM9.54796 42.6619C8.46873 42.4267 7.40315 43.1109 7.16793 44.1901C6.9327 45.2693 7.6169 46.3349 8.69614 46.5701L9.54796 42.6619ZM7.09676 47.7204C7.08588 48.8249 7.97245 49.7291 9.07697 49.74C10.1815 49.7509 11.0857 48.8643 11.0966 47.7598L7.09676 47.7204ZM11.7603 59.9368C11.6249 58.8405 10.6265 58.0616 9.53026 58.197C8.43402 58.3324 7.6551 59.3308 7.79048 60.427L11.7603 59.9368ZM8.83739 66.7444C9.06676 67.8248 10.1286 68.5148 11.2091 68.2854C12.2896 68.0561 12.9796 66.9942 12.7502 65.9137L8.83739 66.7444ZM16.6257 77.1273C16.104 76.1537 14.8918 75.7874 13.9182 76.3091C12.9446 76.8308 12.5783 78.043 13.1 79.0166L16.6257 77.1273ZM16.3699 83.937C17.0594 84.7999 18.3179 84.9404 19.1808 84.2509C20.0438 83.5613 20.1843 82.3028 19.4948 81.4399L16.3699 83.937ZM26.1414 87.7417C25.2459 87.0951 23.9957 87.2969 23.3491 88.1924C22.7025 89.0879 22.9043 90.3381 23.7998 90.9847L26.1414 87.7417ZM28.1228 93.711C29.0915 94.2418 30.3071 93.8869 30.8378 92.9182C31.3686 91.9495 31.0137 90.7339 30.045 90.2032L28.1228 93.711ZM38.6093 93.6554C37.5422 93.3702 36.4459 94.004 36.1607 95.0711C35.8754 96.1382 36.5092 97.2345 37.5763 97.5197L38.6093 93.6554ZM39.5608 98.4882C40.1655 99.4125 41.4051 99.6716 42.3294 99.0669C43.2537 98.4622 43.5129 97.2227 42.9081 96.2983L39.5608 98.4882ZM46.2423 99.8372C45.2506 99.3507 44.0523 99.7602 43.5658 100.752C43.0793 101.744 43.4888 102.942 44.4805 103.428L46.2423 99.8372ZM49.1121 103.428C50.1038 102.942 50.5133 101.744 50.0268 100.752C49.5403 99.7602 48.342 99.3507 47.3504 99.8372L49.1121 103.428ZM50.6845 96.2983C50.0798 97.2226 50.3389 98.4622 51.2633 99.0669C52.1876 99.6716 53.4271 99.4125 54.0319 98.4882L50.6845 96.2983ZM56.0908 97.3354C57.1421 96.9968 57.7199 95.8699 57.3812 94.8186C57.0425 93.7672 55.9157 93.1894 54.8643 93.5281L56.0908 97.3354ZM63.5917 89.871C62.614 90.3849 62.2379 91.5941 62.7518 92.5718C63.2657 93.5496 64.4749 93.9256 65.4526 93.4118L63.5917 89.871ZM69.8514 90.8115C70.771 90.1996 71.0204 88.9581 70.4086 88.0385C69.7967 87.1188 68.5552 86.8694 67.6356 87.4813L69.8514 90.8115ZM74.5508 81.4132C73.845 82.2629 73.9616 83.5238 74.8112 84.2296C75.6609 84.9354 76.9218 84.8188 77.6276 83.9692L74.5508 81.4132ZM80.9028 78.9395C81.3903 77.9483 80.9821 76.7496 79.991 76.262C78.9998 75.7745 77.8011 76.1827 77.3135 77.1738L80.9028 78.9395ZM80.7475 65.8844C80.5464 66.9705 81.2638 68.014 82.3499 68.2151C83.436 68.4162 84.4795 67.6988 84.6806 66.6127L80.7475 65.8844ZM85.6046 60.3503C85.7297 59.2528 84.9414 58.2618 83.844 58.1367C82.7465 58.0116 81.7554 58.7998 81.6303 59.8973L85.6046 60.3503ZM82.3752 47.7403C82.3607 48.8448 83.2444 49.7519 84.3488 49.7663C85.4533 49.7808 86.3604 48.8971 86.3748 47.7927L82.3752 47.7403ZM85.039 46.5688C86.0932 46.2394 86.6808 45.1176 86.3514 44.0633C86.0219 43.009 84.9002 42.4214 83.8459 42.7509L85.039 46.5688ZM83.894 42.7351C82.8841 43.1826 82.4281 44.364 82.8755 45.3738C83.323 46.3837 84.5044 46.8397 85.5143 46.3922L83.894 42.7351ZM85.7735 46.2665C86.7603 45.7704 87.1582 44.5682 86.6621 43.5813C86.166 42.5944 84.9638 42.1965 83.9769 42.6926L85.7735 46.2665ZM84.4145 42.4736C83.4262 42.9669 83.025 44.168 83.5183 45.1563C84.0116 46.1445 85.2127 46.5458 86.201 46.0525L84.4145 42.4736ZM88.652 44.7658C89.6058 44.2087 89.9273 42.9839 89.3702 42.0301C88.8131 41.0763 87.5883 40.7547 86.6345 41.3119L88.652 44.7658ZM90.4044 34.5332C90.3085 35.6336 91.1228 36.6034 92.2232 36.6993C93.3236 36.7952 94.2934 35.9809 94.3893 34.8805L90.4044 34.5332ZM94.277 29.6143C94.0894 28.5258 93.0549 27.7954 91.9664 27.983C90.8779 28.1705 90.1475 29.205 90.3351 30.2935L94.277 29.6143ZM86.8056 23.3475C87.531 24.1804 88.7943 24.2676 89.6273 23.5422C90.4603 22.8168 90.5475 21.5534 89.822 20.7205L86.8056 23.3475ZM86.3116 17.3799C85.4484 16.6907 84.19 16.8318 83.5008 17.695C82.8116 18.5582 82.9527 19.8167 83.8159 20.5058L86.3116 17.3799ZM76.5721 16.2938C77.5952 16.71 78.762 16.2179 79.1782 15.1947C79.5943 14.1715 79.1022 13.0047 78.079 12.5886L76.5721 16.2938ZM72.5069 10.8139C71.4364 10.5418 70.3479 11.189 70.0758 12.2595C69.8036 13.33 70.4509 14.4185 71.5214 14.6906L72.5069 10.8139ZM58.6863 12.6295C59.7866 12.7263 60.757 11.9127 60.8538 10.8124C60.9506 9.71209 60.1371 8.74165 59.0367 8.64487L58.6863 12.6295ZM57.2171 8.95572C56.9254 7.89037 55.8253 7.2632 54.7599 7.5549C53.6946 7.84661 53.0674 8.94672 53.3591 10.0121L57.2171 8.95572ZM52.3646 6.37987C52.6563 7.44523 53.7564 8.0724 54.8218 7.78069C55.8871 7.48899 56.5143 6.38887 56.2226 5.32352L52.3646 6.37987ZM55.4968 3.20551C54.9826 2.22796 53.7732 1.85239 52.7957 2.36666C51.8181 2.88092 51.4425 4.09028 51.9568 5.06783L55.4968 3.20551ZM50.6186 4.04681C51.6973 4.28466 52.7645 3.60305 53.0024 2.52439C53.2402 1.44574 52.5586 0.378496 51.48 0.140646L50.6186 4.04681ZM49.1898 0C48.0852 0 47.1898 0.89543 47.1898 2C47.1898 3.10457 48.0852 4 49.1898 4V0ZM45.2009 4C46.3055 4 47.2009 3.10457 47.2009 2C47.2009 0.89543 46.3055 0 45.2009 0V4ZM44.2037 0C41.6388 0 39.3576 1.63038 38.527 4.05708L42.3115 5.35236C42.5883 4.54346 43.3488 4 44.2037 4V0ZM38.527 4.05708L38.2006 5.01085L41.985 6.30612L42.3115 5.35236L38.527 4.05708ZM36.8948 8.82592L36.5684 9.77968L40.3529 11.075L40.6793 10.1212L36.8948 8.82592ZM38.32 8.43227C37.2355 8.50872 36.157 8.60161 35.0806 8.71234L35.4899 12.6913C36.5222 12.5852 37.558 12.4959 38.6013 12.4224L38.32 8.43227ZM22.2593 10.9272C21.2227 11.1794 20.1757 11.4513 19.115 11.7439L20.1791 15.5998C21.2013 15.3178 22.2088 15.0562 23.2047 14.8139L22.2593 10.9272ZM19.115 11.7439C18.3329 11.9598 17.5594 12.204 16.7978 12.4753L18.1399 16.2434C18.81 16.0047 19.4907 15.7898 20.1791 15.5998L19.115 11.7439ZM8.23622 17.1002C6.91045 18.1266 5.69417 19.263 4.62582 20.4994L7.65243 23.1147C8.5325 22.0962 9.55145 21.1406 10.6849 20.2631L8.23622 17.1002ZM0.208605 29.5943C0.0712773 30.4426 0 31.3085 0 32.1891H4C4 31.525 4.0537 30.8729 4.1572 30.2336L0.208605 29.5943ZM0 32.1891C0 33.1586 0.0371444 34.0626 0.10971 34.9067L4.09501 34.5641C4.03329 33.8461 4 33.0571 4 32.1891H0ZM5.4868 45.1572C6.36257 45.6906 7.26572 46.0816 8.11679 46.4041L9.53441 42.6638C8.79899 42.385 8.14879 42.095 7.56747 41.741L5.4868 45.1572ZM8.11677 46.4041C8.17157 46.4249 8.22406 46.4429 8.27283 46.4586L9.49465 42.6497C9.50151 42.6519 9.51523 42.6565 9.53443 42.6638L8.11677 46.4041ZM8.69614 46.5701C8.72455 46.5763 8.7531 46.5823 8.78173 46.5882L9.58291 42.6692C9.57012 42.6666 9.55849 42.6642 9.54796 42.6619L8.69614 46.5701ZM7.18458 44.5337C7.14969 45.267 7.11018 46.3573 7.09676 47.7204L11.0966 47.7598C11.1094 46.4525 11.1473 45.4128 11.1801 44.7238L7.18458 44.5337ZM7.79048 60.427C8.04377 62.4779 8.38376 64.6075 8.83739 66.7444L12.7502 65.9137C12.324 63.906 12.0017 61.8915 11.7603 59.9368L7.79048 60.427ZM13.1 79.0166C13.6281 80.0021 14.2043 80.9566 14.8332 81.8685L18.126 79.5976C17.5892 78.8193 17.0898 77.9935 16.6257 77.1273L13.1 79.0166ZM14.8332 81.8685C15.3297 82.5885 15.843 83.2775 16.3699 83.937L19.4948 81.4399C19.0254 80.8526 18.5683 80.2388 18.126 79.5976L14.8332 81.8685ZM23.7998 90.9847C25.2575 92.0372 26.7144 92.9393 28.1228 93.711L30.045 90.2032C28.7686 89.5037 27.4533 88.6889 26.1414 87.7417L23.7998 90.9847ZM37.5763 97.5197C38.3571 97.7285 38.9884 97.87 39.4316 97.9604C39.6533 98.0056 39.8282 98.0381 39.9515 98.0599C40.0131 98.0708 40.0618 98.079 40.0971 98.0848C40.1147 98.0877 40.129 98.09 40.1398 98.0917C40.1453 98.0925 40.1498 98.0932 40.1535 98.0938C40.1553 98.0941 40.157 98.0943 40.1584 98.0945C40.1591 98.0946 40.1597 98.0947 40.1603 98.0948C40.1606 98.0949 40.1609 98.0949 40.1612 98.095C40.1613 98.095 40.1615 98.095 40.1616 98.095C40.1617 98.095 40.1619 98.0951 40.4615 96.1176C40.7611 94.1402 40.7613 94.1402 40.7615 94.1403C40.7616 94.1403 40.7617 94.1403 40.7618 94.1403C40.762 94.1404 40.7622 94.1404 40.7624 94.1404C40.7628 94.1405 40.7631 94.1405 40.7634 94.1406C40.7639 94.1406 40.7643 94.1407 40.7644 94.1407C40.7646 94.1407 40.764 94.1406 40.7625 94.1404C40.7596 94.1399 40.7533 94.1389 40.7436 94.1374C40.7244 94.1342 40.6921 94.1288 40.6471 94.1209C40.5572 94.105 40.417 94.079 40.2313 94.0412C39.8597 93.9653 39.3066 93.8418 38.6093 93.6554L37.5763 97.5197ZM40.4615 96.1176C38.7006 97.0658 38.7006 97.0659 38.7007 97.0661C38.7007 97.0661 38.7008 97.0662 38.7008 97.0663C38.7009 97.0665 38.701 97.0666 38.7011 97.0668C38.7013 97.0671 38.7015 97.0675 38.7017 97.068C38.7022 97.0688 38.7027 97.0698 38.7033 97.0709C38.7045 97.0731 38.706 97.0758 38.7077 97.079C38.7112 97.0855 38.7159 97.0939 38.7216 97.1044C38.7331 97.1253 38.749 97.154 38.7691 97.19C38.8094 97.2619 38.8668 97.3629 38.9401 97.4878C39.0862 97.7372 39.2967 98.0845 39.5608 98.4882L42.9081 96.2983C42.6856 95.9582 42.5097 95.6677 42.391 95.4652C42.3318 95.3642 42.2873 95.2858 42.2586 95.2347C42.2444 95.2092 42.2341 95.1906 42.228 95.1795C42.2249 95.174 42.2229 95.1703 42.222 95.1686C42.2216 95.1677 42.2214 95.1674 42.2214 95.1675C42.2215 95.1676 42.2216 95.1678 42.2218 95.1681C42.2218 95.1683 42.222 95.1685 42.2221 95.1687C42.2221 95.1688 42.2222 95.1689 42.2223 95.1691C42.2223 95.1691 42.2224 95.1692 42.2224 95.1693C42.2224 95.1693 42.2225 95.1695 40.4615 96.1176ZM44.4805 103.428C45.1504 103.757 45.935 104 46.7963 104V100C46.6936 100 46.5141 99.9706 46.2423 99.8372L44.4805 103.428ZM46.7963 104C47.6577 104 48.4423 103.757 49.1121 103.428L47.3504 99.8372C47.0785 99.9706 46.899 100 46.7963 100V104ZM54.0319 98.4882C54.2959 98.0845 54.5065 97.7372 54.6526 97.4878C54.7259 97.3629 54.7833 97.2619 54.8236 97.19C54.8437 97.1541 54.8596 97.1253 54.8711 97.1044C54.8768 97.094 54.8815 97.0855 54.885 97.079C54.8867 97.0758 54.8882 97.0731 54.8894 97.0709C54.89 97.0698 54.8905 97.0688 54.891 97.068C54.8912 97.0676 54.8914 97.0672 54.8916 97.0668C54.8917 97.0666 54.8918 97.0665 54.8919 97.0663C54.8919 97.0662 54.892 97.0661 54.892 97.0661C54.892 97.066 54.8921 97.0658 53.1312 96.1176C51.3702 95.1694 51.3703 95.1693 51.3703 95.1692C51.3704 95.1692 51.3704 95.1691 51.3704 95.169C51.3705 95.1689 51.3706 95.1688 51.3706 95.1687C51.3708 95.1685 51.3709 95.1683 51.3709 95.1681C51.3711 95.1678 51.3712 95.1676 51.3713 95.1675C51.3713 95.1674 51.3711 95.1677 51.3707 95.1686C51.3698 95.1703 51.3678 95.1739 51.3647 95.1795C51.3586 95.1906 51.3484 95.2092 51.3341 95.2347C51.3055 95.2858 51.2609 95.3642 51.2017 95.4652C51.083 95.6677 50.9071 95.9582 50.6845 96.2983L54.0319 98.4882ZM53.1312 96.1176C53.6039 98.061 53.604 98.061 53.6041 98.0609C53.6042 98.0609 53.6043 98.0609 53.6044 98.0609C53.6046 98.0608 53.6048 98.0608 53.605 98.0607C53.6054 98.0606 53.6059 98.0605 53.6064 98.0604C53.6074 98.0601 53.6087 98.0598 53.6102 98.0594C53.6132 98.0587 53.617 98.0578 53.6217 98.0566C53.6311 98.0543 53.6439 98.0511 53.66 98.047C53.6923 98.0389 53.7379 98.0273 53.7962 98.0121C53.9129 97.9818 54.0806 97.9371 54.2943 97.8775C54.7216 97.7584 55.3336 97.5793 56.0908 97.3354L54.8643 93.5281C54.162 93.7543 53.6009 93.9183 53.2199 94.0245C53.0294 94.0776 52.8841 94.1163 52.7889 94.141C52.7413 94.1534 52.7062 94.1624 52.6842 94.1679C52.6733 94.1706 52.6656 94.1725 52.6613 94.1736C52.6591 94.1741 52.6578 94.1745 52.6573 94.1746C52.6571 94.1746 52.6571 94.1747 52.6572 94.1746C52.6573 94.1746 52.6575 94.1745 52.6577 94.1745C52.6578 94.1745 52.6579 94.1744 52.658 94.1744C52.6581 94.1744 52.6582 94.1744 52.6582 94.1744C52.6583 94.1743 52.6585 94.1743 53.1312 96.1176ZM65.4526 93.4118C66.8946 92.6539 68.3808 91.7899 69.8514 90.8115L67.6356 87.4813C66.2944 88.3736 64.9287 89.1683 63.5917 89.871L65.4526 93.4118ZM77.6276 83.9692C78.1872 83.2956 78.72 82.592 79.2194 81.8577L75.9117 79.6084C75.4883 80.2311 75.0331 80.8326 74.5508 81.4132L77.6276 83.9692ZM79.2194 81.8577C79.8377 80.9484 80.3965 79.9685 80.9028 78.9395L77.3135 77.1738C76.8771 78.0611 76.41 78.8757 75.9117 79.6084L79.2194 81.8577ZM84.6806 66.6127C85.0699 64.5105 85.3714 62.3964 85.6046 60.3503L81.6303 59.8973C81.4057 61.868 81.1171 63.8886 80.7475 65.8844L84.6806 66.6127ZM86.3748 47.7927C86.3923 46.4592 86.3859 45.3843 86.3754 44.6516L82.3758 44.7086C82.3858 45.4092 82.3921 46.4474 82.3752 47.7403L86.3748 47.7927ZM84.9384 46.5993C84.972 46.5894 85.0055 46.5793 85.039 46.5688L83.8459 42.7509C83.836 42.754 83.825 42.7573 83.8129 42.7609L84.9384 46.5993ZM85.5143 46.3922C85.5639 46.3702 85.6153 46.3462 85.6676 46.3197L83.8667 42.7481C83.8795 42.7417 83.8888 42.7374 83.894 42.7351L85.5143 46.3922ZM85.6677 46.3197C85.7029 46.3019 85.7382 46.2842 85.7735 46.2665L83.9769 42.6926C83.9403 42.711 83.9035 42.7295 83.8666 42.7481L85.6677 46.3197ZM86.201 46.0525C86.237 46.0345 86.273 46.0165 86.309 45.9986L84.5229 42.4195C84.487 42.4374 84.4508 42.4555 84.4145 42.4736L86.201 46.0525ZM86.309 45.9986C87.0869 45.6104 87.8944 45.2083 88.652 44.7658L86.6345 41.3119C86.0112 41.6759 85.326 42.0187 84.5229 42.4195L86.309 45.9986ZM94.3893 34.8805C94.4616 34.0512 94.4977 33.1566 94.4977 32.1891L90.4977 32.1891C90.4977 33.0581 90.4652 33.8356 90.4044 34.5332L94.3893 34.8805ZM94.4977 32.1891C94.4977 31.313 94.4216 30.4538 94.277 29.6143L90.3351 30.2935C90.4419 30.9136 90.4977 31.5455 90.4977 32.1891L94.4977 32.1891ZM89.822 20.7205C88.7653 19.5071 87.5782 18.3911 86.3116 17.3799L83.8159 20.5058C84.9155 21.3837 85.924 22.3352 86.8056 23.3475L89.822 20.7205ZM78.079 12.5886C77.3295 12.2837 76.5786 12.0099 75.8327 11.7688L74.6026 15.575C75.2529 15.7851 75.9114 16.0251 76.5721 16.2938L78.079 12.5886ZM75.8327 11.7688C74.7549 11.4205 73.6439 11.103 72.5069 10.8139L71.5214 14.6906C72.584 14.9608 73.6129 15.2551 74.6026 15.575L75.8327 11.7688ZM59.0367 8.64487C57.9124 8.54599 56.7842 8.46333 55.6568 8.39556L55.4167 12.3883C56.5094 12.454 57.6007 12.534 58.6863 12.6295L59.0367 8.64487ZM57.4657 9.86377L57.2171 8.95572L53.3591 10.0121L53.6078 10.9201L57.4657 9.86377ZM56.2226 5.32352L55.9739 4.41547L52.116 5.47182L52.3646 6.37987L56.2226 5.32352ZM55.9739 4.41547C55.8575 3.99035 55.6967 3.58535 55.4968 3.20551L51.9568 5.06783C52.0229 5.19355 52.0767 5.3285 52.116 5.47182L55.9739 4.41547ZM51.48 0.140646C51.0608 0.0482255 50.6277 0 50.187 0V4C50.3356 4 50.4799 4.01622 50.6186 4.04681L51.48 0.140646ZM50.187 0H49.1898V4H50.187V0ZM45.2009 0H44.2037V4H45.2009V0Z" fill="black"/>
</svg>
