<svg width="91" height="100" viewBox="0 0 91 100" fill="none" xmlns="http://www.w3.org/2000/svg">
<path d="M38.4193 2.70472C38.973 1.08692 40.4938 0 42.2037 0H48.187C49.9893 0 51.569 1.20532 52.045 2.94364L53.8192 9.42328C54.5161 11.9688 52.6003 14.4796 49.9612 14.4796H39.986C37.2423 14.4796 35.3131 11.7803 36.2015 9.18436L38.4193 2.70472Z" fill="#6E3C42"/>
<path d="M7.23979 41.629H82.3529C82.3529 41.629 83.2579 67.4208 75.5656 78.733C67.8733 90.0453 51.1312 94.1177 51.1312 94.1177C51.1312 94.1177 47.9638 100 44.7964 100C41.6289 100 38.4616 94.1177 38.4616 94.1177C38.4616 94.1177 23.5294 91.8552 14.4796 78.733C5.42984 65.6109 7.23979 41.629 7.23979 41.629Z" fill="#E6752A"/>
<path d="M17.6471 11.6719C27.1493 9.04975 35.4742 8.14478 45.0238 8.14478C54.5733 8.14478 65.0323 9.02655 73.2176 11.6719C81.4029 14.3172 90.4977 21.2669 90.4977 30.1891C90.4977 39.1112 87.2538 40.2715 82.7672 42.5339C78.2805 44.7964 10.4072 43.8914 6.8256 42.5339C3.24396 41.1764 0 39.0068 0 30.1891C0 21.3714 8.1448 14.294 17.6471 11.6719Z" fill="#884440"/>
<path d="M29.7045 80.5314C22.6618 73.944 19.3188 59.6576 19.1387 50.4102C19.1078 48.8261 20.4253 47.5984 22.0097 47.5984L26.6459 47.5984C28.4347 47.5984 29.8234 49.154 29.7529 50.9415C29.3914 60.1117 31.3498 70.7133 33.0821 78.0028C33.6397 80.3488 31.4655 82.1786 29.7045 80.5314Z" fill="#FFFEFE" fill-opacity="0.3"/>
<path d="M9.0142 26.0423C9.00266 28.3188 10.1303 32.8756 14.7333 32.8912C20.4869 32.9106 21.7863 28.8173 21.8001 26.0855C21.8209 21.9878 16.7078 21.7132 16.6858 26.0682C16.6719 28.8 20.4869 33.9105 25.6013 33.9278C30.7157 33.9451 33.926 31.2241 33.9468 27.1265C33.9676 23.0288 28.8532 23.0116 28.8324 27.1092C28.8151 30.5239 30.0764 34.943 38.3873 34.971" stroke="#AA5144" stroke-width="2"/>
<path d="M38.3874 34.971C44.3484 34.9911 45.6938 29.8979 45.7077 27.1661C45.7284 23.0685 40.4311 22.7932 40.409 27.1483C40.3951 29.88 44.3484 33.991 49.6471 34.0089C54.9457 34.0268 58.2713 31.3063 58.292 27.2086C58.3128 23.111 53.0141 23.0931 52.9933 27.1907C52.976 30.6054 54.2834 33.0246 62.8938 33.0537" stroke="#AA5144" stroke-width="2"/>
</svg>
