<svg xmlns="http://www.w3.org/2000/svg" viewBox="0 0 38 35">
  <g fill="none">
    <path fill="#FF7964" d="M18 26.385c8.726-5.174 12.827-7.164 12.3-5.973C29.776 21.604 25.676 26.133 18 34v-7.615Z"/>
    <path fill="#FF7964" d="M32 14c0 7.186-5.815 13-13 13S6 21.172 6 14 11.815 1 19 1s13 5.828 13 13Z"/>
    <path fill="#FFF" d="M10.84 15.726h1.92c.465.002.84.344.842.768v1.739c-.002.423-.377.766-.841.767h-1.92c-.464-.001-.84-.344-.841-.767v-1.74c.001-.423.377-.765.84-.767Zm4.444-3.836h1.906c.463.001.839.344.84.767v5.576c-.001.423-.377.766-.84.767h-1.906c-.464-.001-.84-.344-.841-.767v-5.576c.001-.423.377-.766.84-.767ZM19.712 14h1.92c.464.001.84.344.841.767v3.466c-.001.423-.377.766-.84.767h-1.92c-.465-.001-.84-.344-.842-.767v-3.466c.002-.423.377-.766.841-.767Zm4.541-5h1.906c.464.001.84.344.841.767v8.466c-.001.423-.377.766-.84.767h-1.907c-.464-.001-.84-.344-.84-.767V9.767c0-.423.376-.766.84-.767Z"/>
  </g>
</svg>