<svg width="104" height="104" viewBox="0 0 104 104" fill="none" xmlns="http://www.w3.org/2000/svg">
<path d="M100.485 93.0425C100.485 88.0324 96.0909 84.9959 83.0606 81.6558C76.2424 79.9858 70.6363 76.0384 70.6363 76.0384C69.7273 75.5829 70.4848 71.1801 70.4848 71.1801L65.6364 70.421C65.6364 70.1174 65.3333 64.8036 65.3333 64.8036C70.3333 63.1335 69.8788 53.2651 69.8788 53.2651C73.0606 55.0869 75.1818 47.1922 75.1818 47.1922C78.9697 36.261 73.3636 37.0201 73.3636 37.0201C75.1818 28.8217 73.3636 16.9795 73.3636 16.9795C70.7879 -5.03468 32.1515 1.79733 37.9091 8.78116C24.1212 4.9856 28.9697 31.099 28.9697 31.099L31.3939 37.6274C26.697 40.6638 30.0303 44.3076 30.1818 48.5586C30.4848 54.7833 34.2727 53.5687 34.2727 53.5687C34.5757 63.8926 39.5757 65.2591 39.5757 65.2591C40.4848 71.7874 39.5757 71.1801 39.5757 71.1801L33.6667 71.6356C33.6667 71.6356 34.1212 75.5829 33.2121 76.1902C33.2121 76.1902 27.4545 80.1376 20.7879 81.8077C7.75756 85.1478 3.36363 88.1842 3.36363 93.1943C3.36363 93.1943 2 93.8016 2 102H102C101.848 93.8016 100.485 93.0425 100.485 93.0425Z" stroke="black" stroke-width="4" stroke-linecap="round" stroke-linejoin="round" stroke-dasharray="5 10"/>
</svg>
