<svg width="100" height="100" viewBox="0 0 100 100" fill="none" xmlns="http://www.w3.org/2000/svg">
<path d="M98.4848 90.8584C98.4848 85.8584 94.0909 82.8281 81.0606 79.4947C74.2424 77.8281 68.6363 73.8886 68.6363 73.8886C67.7273 73.4341 68.4848 69.0402 68.4848 69.0402L63.6364 68.2826C63.6364 67.9796 63.3333 62.6765 63.3333 62.6765C68.3333 61.0099 67.8788 51.1614 67.8788 51.1614C71.0606 52.9795 73.1818 45.1008 73.1818 45.1008C76.9697 34.1917 71.3636 34.9493 71.3636 34.9493C73.1818 26.7675 71.3636 14.9492 71.3636 14.9492C68.7879 -7.02045 30.1515 -0.202257 35.9091 6.76744C22.1212 2.97956 26.9697 29.0402 26.9697 29.0402L29.3939 35.5553C24.697 38.5856 28.0303 42.222 28.1818 46.4644C28.4848 52.6766 32.2727 51.4644 32.2727 51.4644C32.5757 61.7674 37.5757 63.1311 37.5757 63.1311C38.4848 69.6462 37.5757 69.0402 37.5757 69.0402L31.6667 69.4947C31.6667 69.4947 32.1212 73.4341 31.2121 74.0402C31.2121 74.0402 25.4545 77.9796 18.7879 79.6462C5.75757 82.9796 1.36363 86.0099 1.36363 91.0099C1.36363 91.0099 0 91.6159 0 99.7977H100C99.8485 91.6159 98.4848 90.8584 98.4848 90.8584Z" fill="#CEE2FB"/>
<path d="M98.4848 90.8584C98.4848 85.8584 94.0909 82.8281 81.0606 79.4947C74.2424 77.8281 68.6363 73.8886 68.6363 73.8886C67.7273 73.4341 68.4848 69.0402 68.4848 69.0402L63.6364 68.2826C63.6364 67.9796 63.3333 62.6765 63.3333 62.6765C68.3333 61.0099 67.8788 51.1614 67.8788 51.1614C71.0606 52.9795 73.1818 45.1008 73.1818 45.1008C76.9697 34.1917 71.3636 34.9493 71.3636 34.9493C73.1818 26.7675 71.3636 14.9492 71.3636 14.9492C68.7879 -7.02045 30.1515 -0.202256 35.9091 6.76744C22.1212 2.97956 26.9697 29.0402 26.9697 29.0402L29.3939 35.5553C24.697 38.5856 28.0303 42.222 28.1818 46.4644C28.4848 52.6766 32.2727 51.4644 32.2727 51.4644C32.5757 61.7674 37.5757 63.1311 37.5757 63.1311C38.4848 69.6463 37.5757 69.0402 37.5757 69.0402L31.6667 69.4947C31.6667 69.4947 32.1212 73.4341 31.2121 74.0402C31.2121 74.0402 25.4545 77.9796 18.7879 79.6462C5.75757 82.9796 1.36363 86.0099 1.36363 91.0099C1.36363 91.0099 0 91.6159 0 99.7977H100C99.8485 91.6159 98.4848 90.8584 98.4848 90.8584Z" fill="#B9DDF2"/>
<path fill-rule="evenodd" clip-rule="evenodd" d="M29.3653 35.7143L30.9526 40.4762C30.9526 40.4762 29.838 35.2953 31.7463 29.3651C32.8999 25.7802 35.6479 22.7586 37.4117 20.8194C38.1156 20.0454 38.6627 19.4438 38.8891 19.0476C39.6828 17.6587 64.286 25.3968 67.4606 26.9841C70.6352 28.5714 69.0479 38.8889 69.0479 38.8889L71.4146 34.9443C71.3817 34.9469 71.3639 34.9493 71.3639 34.9493C73.182 26.7675 71.3639 14.9492 71.3639 14.9492C68.7881 -7.02045 30.1518 -0.202257 35.9093 6.76744C22.1214 2.97956 26.9699 29.0402 26.9699 29.0402L29.3942 35.5553C29.3676 35.5724 29.3414 35.5896 29.3154 35.6067L29.3653 35.7143Z" fill="#337DA8"/>
<ellipse cx="41.2699" cy="37.3016" rx="1.5873" ry="2.38095" fill="#337DA8"/>
<path d="M50.0002 34.9207C50.5293 38.6244 51.905 46.3492 53.1748 47.6191C54.7621 49.2064 51.5875 49.2064 49.2065 49.2064" stroke="#337DA8" stroke-linecap="round"/>
<ellipse cx="58.7301" cy="37.3016" rx="1.5873" ry="2.38095" fill="#337DA8"/>
<path d="M46.0317 53.9683C47.619 55.1661 51.746 56.843 55.5555 53.9683" stroke="#337DA8" stroke-linecap="round"/>
<path d="M36.5072 76.1904C37.1422 74.2856 37.8299 66.1376 37.3008 62.6984C48.4128 69.0476 54.762 69.0476 63.4913 62.6984L64.2858 76.9841C53.9683 84.127 35.8723 78.0951 36.5072 76.1904Z" fill="#9FCEEA"/>
</svg>
