<svg width="112" height="93" viewBox="0 0 112 93" fill="none" xmlns="http://www.w3.org/2000/svg">
<path d="M33.7579 11.7549L31.94 10.921C31.7188 11.4033 31.6982 11.9536 31.8829 12.451C32.0676 12.9484 32.4423 13.352 32.9247 13.5731L33.7579 11.7549ZM39.5396 18.25L41.453 17.6677L39.5396 18.25ZM54.123 39.0834L52.806 40.5885L54.123 39.0834ZM58.1951 43.4058L56.6153 44.6323C57.2023 45.3884 58.2428 45.6226 59.0972 45.1908C59.9516 44.7591 60.3802 43.7825 60.1196 42.8614L58.1951 43.4058ZM91.0641 6.14393L90.5464 8.07579L91.0641 6.14393ZM105.461 38.2481L105.683 40.2358L105.461 38.2481ZM98.9257 34.6503L100.586 33.5358L100.586 33.5358L98.9257 34.6503ZM97.1344 32.6656L98.0206 30.8727L98.0206 30.8727L97.1344 32.6656ZM87.0245 36.4199L85.1998 35.601V35.601L87.0245 36.4199ZM87.0977 49.3204L89.0681 48.9771V48.9771L87.0977 49.3204ZM87.7741 62.234L85.8177 61.8187V61.8187L87.7741 62.234ZM72.4138 84.689L71.4145 82.9566L72.4138 84.689ZM55.1597 87.0007L55.5256 85.0344C55 84.9367 54.4571 85.0534 54.0181 85.3585L55.1597 87.0007ZM54.5396 87.4167L55.6258 89.096L55.6261 89.0959L54.5396 87.4167ZM54.4018 87.4468L54.1178 85.4671C53.8609 85.5039 53.6136 85.5904 53.3897 85.7218L54.4018 87.4468ZM50.1424 89.1313L49.7016 87.1805C48.9436 87.3518 48.3534 87.9466 48.1881 88.706C48.0229 89.4653 48.3125 90.2517 48.9308 90.7225L50.1424 89.1313ZM51.5815 90.3334V92.3334C52.406 92.3334 53.146 91.8274 53.4452 91.0591C53.7444 90.2908 53.5414 89.4176 52.934 88.8601L51.5815 90.3334ZM6.16649 90.3334L4.34735 89.5023C4.06449 90.1214 4.11594 90.8419 4.4839 91.4146C4.85185 91.9872 5.48581 92.3334 6.16649 92.3334V90.3334ZM14.048 84.5813L14.2678 86.5692C15.0149 86.4866 15.6527 85.9921 15.9186 85.289C16.1846 84.586 16.034 83.7932 15.5286 83.2367L14.048 84.5813ZM13.8978 64.5867L15.3983 65.9091C15.6883 65.58 15.8621 65.1646 15.8929 64.727L13.8978 64.5867ZM14.7342 54.4183L16.7261 54.5991C16.798 53.8071 16.3937 53.0477 15.6965 52.665L14.7342 54.4183ZM12.6367 53.0644L11.4703 54.6891L11.4763 54.6934L12.6367 53.0644ZM12.6366 53.0644L11.3872 54.6261C11.4143 54.6478 11.442 54.6688 11.4702 54.689L12.6366 53.0644ZM12.6365 53.0643L13.8859 51.5026C13.8569 51.4794 13.8272 51.4569 13.7969 51.4354L12.6365 53.0643ZM9.91675 54.5052L10.4018 52.5649H10.4018L9.91675 54.5052ZM14.2142 45.8623L14.4549 43.8768C14.4231 43.873 14.3913 43.8699 14.3594 43.8675L14.2142 45.8623ZM14.2143 45.8623L13.9737 47.8478C13.9996 47.8509 14.0256 47.8535 14.0516 47.8557L14.2143 45.8623ZM14.2145 45.8623L14.3997 43.8709C14.3922 43.8702 14.3847 43.8695 14.3772 43.8689L14.2145 45.8623ZM14.2146 45.8623L14.0294 47.8537C14.0427 47.855 14.0561 47.8561 14.0695 47.857L14.2146 45.8623ZM15.5472 45.9465L15.4603 47.9446C16.5193 47.9907 17.4304 47.2025 17.5371 46.1478L15.5472 45.9465ZM16.5859 36.5833L17.0024 34.6272C16.4575 34.5111 15.889 34.6276 15.4336 34.9486C14.9783 35.2696 14.6775 35.7659 14.6036 36.3181L16.5859 36.5833ZM16.6221 36.591L16.2056 38.5472C16.7596 38.6651 17.3376 38.5427 17.7962 38.2102C18.2547 37.8777 18.5508 37.3664 18.6109 36.8032L16.6221 36.591ZM16.623 36.5834L18.6117 36.7955C18.7132 35.8437 18.1261 34.9533 17.2111 34.6718L16.623 36.5834ZM15.2088 36.16L15.7752 34.2419L15.7628 34.2383L15.2088 36.16ZM15.2081 36.1598L14.6417 38.078L14.6541 38.0816L15.2081 36.1598ZM4.09608 27.8333L6.0221 27.2944C5.77921 26.4264 4.98574 25.8281 4.08441 25.8333L4.09608 27.8333ZM4.08333 27.8334V29.8334L4.095 29.8333L4.08333 27.8334ZM3.98802 22.8355L4.07799 24.8335C4.92974 24.7951 5.66353 24.221 5.90567 23.4035L3.98802 22.8355ZM16.4781 11.7626L17.2516 13.607C18.2064 13.2066 18.6977 12.1437 18.3842 11.157L16.4781 11.7626ZM23.6556 10.2411L21.6601 10.107C21.6216 10.6793 21.8308 11.2406 22.2344 11.6482C22.6379 12.0559 23.1971 12.2706 23.7698 12.2378L23.6556 10.2411ZM24.6975 10.1987L24.7454 12.1982C25.3506 12.1837 25.9167 11.8958 26.2849 11.4154C26.6532 10.9349 26.784 10.3134 26.6407 9.72525L24.6975 10.1987ZM35.8298 11.9885C36.23 10.959 35.7199 9.79997 34.6903 9.39977C33.6608 8.99957 32.5018 9.50974 32.1016 10.5393L35.8298 11.9885ZM32.4829 9.00973C32.3784 10.1093 33.185 11.0855 34.2847 11.19C35.3843 11.2946 36.3604 10.4879 36.465 9.38833L32.4829 9.00973ZM36.2573 6.70941C36.0012 5.63494 34.9225 4.97151 33.8481 5.2276C32.7736 5.48368 32.1102 6.56232 32.3663 7.63679L36.2573 6.70941ZM30.0556 4.14879C31.0432 4.64359 32.2448 4.24414 32.7396 3.2566C33.2344 2.26905 32.835 1.06737 31.8474 0.572569L30.0556 4.14879ZM27.1526 0.572569C26.165 1.06737 25.7656 2.26905 26.2604 3.2566C26.7552 4.24414 27.9568 4.64359 28.9444 4.14879L27.1526 0.572569ZM26.6337 7.63679C26.8898 6.56232 26.2264 5.48368 25.1519 5.2276C24.0775 4.97151 22.9988 5.63494 22.7427 6.70941L26.6337 7.63679ZM22.5086 9.02078C22.5617 10.1241 23.4992 10.9754 24.6025 10.9223C25.7058 10.8692 26.5571 9.93172 26.504 8.82843L22.5086 9.02078ZM26.5985 9.53891C26.3731 8.45759 25.3138 7.76372 24.2325 7.98911C23.1512 8.21451 22.4573 9.27382 22.6827 10.3551L26.5985 9.53891ZM24.4647 8.20426C23.3606 8.23691 22.492 9.15841 22.5246 10.2625C22.5573 11.3666 23.4788 12.2352 24.5829 12.2025L24.4647 8.20426ZM23.9325 12.229C25.0355 12.1719 25.8835 11.2314 25.8265 10.1283C25.7694 9.02524 24.8289 8.17726 23.7258 8.23432L23.9325 12.229ZM25.6557 10.3001C25.7182 9.19735 24.8748 8.25273 23.772 8.19029C22.6692 8.12784 21.7246 8.97122 21.6621 10.074L25.6557 10.3001ZM21.6666 9.94702C21.6534 11.0515 22.5382 11.9575 23.6427 11.9706C24.7472 11.9838 25.6532 11.099 25.6663 9.99454L21.6666 9.94702ZM25.4882 8.31662C25.2563 7.23667 24.1929 6.54919 23.1129 6.7811C22.033 7.013 21.3455 8.07647 21.5774 9.15642L25.4882 8.31662ZM20.0649 6.55833C21.0261 7.10244 22.2465 6.76428 22.7906 5.80302C23.3347 4.84176 22.9965 3.62142 22.0353 3.07731L20.0649 6.55833ZM17.7982 3.07731C16.837 3.62142 16.4988 4.84176 17.0429 5.80302C17.587 6.76428 18.8074 7.10244 19.7686 6.55833L17.7982 3.07731ZM18.2561 9.15642C18.488 8.07647 17.8005 7.013 16.7206 6.7811C15.6406 6.54919 14.5772 7.23667 14.3452 8.31662L18.2561 9.15642ZM14.1813 10.3593C14.253 11.4615 15.2046 12.297 16.3068 12.2254C17.409 12.1538 18.2445 11.2022 18.1729 10.0999L14.1813 10.3593ZM18.3197 10.9381C18.0302 9.8721 16.9314 9.24264 15.8654 9.53212C14.7995 9.82161 14.17 10.9204 14.4595 11.9864L18.3197 10.9381ZM12.9591 11.2229C11.9832 11.7403 11.6115 12.9509 12.1289 13.9268C12.6463 14.9027 13.8568 15.2744 14.8327 14.757L12.9591 11.2229ZM6.88247 21.3421C7.48195 20.4143 7.21585 19.1763 6.28812 18.5768C5.36038 17.9773 4.12232 18.2434 3.52284 19.1712L6.88247 21.3421ZM2.87725 21.015C1.8219 21.341 1.23067 22.4609 1.5567 23.5162C1.88274 24.5716 3.00257 25.1628 4.05793 24.8368L2.87725 21.015ZM4.00254 24.8943C4.27957 23.825 3.63733 22.7336 2.56807 22.4566C1.4988 22.1796 0.407416 22.8218 0.130384 23.8911L4.00254 24.8943ZM0.132322 26.0111C0.383176 27.0868 1.45857 27.7555 2.53427 27.5046C3.60998 27.2537 4.27866 26.1784 4.0278 25.1026L0.132322 26.0111ZM4.43285 25.9132C3.46588 25.3793 2.24919 25.7304 1.71529 26.6974C1.18139 27.6643 1.53245 28.881 2.49942 29.4149L4.43285 25.9132ZM4.09713 29.8333C5.20168 29.8269 6.09187 28.9262 6.08542 27.8217C6.07898 26.7171 5.17834 25.827 4.07379 25.8334L4.09713 29.8333ZM4.08229 25.8333C2.97774 25.8398 2.08755 26.7404 2.09399 27.845C2.10044 28.9495 3.00108 29.8397 4.10563 29.8333L4.08229 25.8333ZM3.29104 31.0741C3.84051 32.0323 5.06272 32.3637 6.02093 31.8142C6.97913 31.2647 7.31047 30.0425 6.761 29.0843L3.29104 31.0741ZM13.4989 33.5465C12.4489 33.2037 11.3198 33.7771 10.9771 34.8272C10.6343 35.8772 11.2077 37.0063 12.2577 37.349L13.4989 33.5465ZM14.6542 38.0816C15.7156 38.3876 16.824 37.7752 17.13 36.7139C17.4359 35.6525 16.8236 34.5441 15.7622 34.2381L14.6542 38.0816ZM15.7627 34.2383C14.7013 33.9323 13.5929 34.5446 13.2869 35.606C12.9809 36.6673 13.5933 37.7758 14.6546 38.0817L15.7627 34.2383ZM14.8778 38.1477C15.937 38.4608 17.0495 37.856 17.3627 36.7967C17.6758 35.7374 17.0709 34.6249 16.0117 34.3118L14.8778 38.1477ZM16.9691 34.5978C15.9122 34.2767 14.7951 34.8732 14.474 35.9301C14.153 36.9869 14.7494 38.104 15.8063 38.4251L16.9691 34.5978ZM14.6341 36.3725C14.5169 37.4708 15.3123 38.4562 16.4107 38.5734C17.509 38.6905 18.4944 37.8951 18.6115 36.7968L14.6341 36.3725ZM18.611 36.8019C18.7282 35.7036 17.9328 34.7182 16.8344 34.601C15.7361 34.4839 14.7507 35.2793 14.6336 36.3776L18.611 36.8019ZM17.0326 34.6336C15.9523 34.4036 14.89 35.0929 14.66 36.1732C14.4299 37.2536 15.1192 38.3159 16.1996 38.5459L17.0326 34.6336ZM16.1754 38.5407C17.2558 38.7708 18.3181 38.0815 18.5481 37.0011C18.7781 35.9208 18.0888 34.8585 17.0085 34.6284L16.1754 38.5407ZM14.405 37.9035C14.2743 39.0003 15.0574 39.9955 16.1542 40.1263C17.251 40.2571 18.2461 39.474 18.3769 38.3772L14.405 37.9035ZM17.6963 44.5897C17.8099 43.491 17.0112 42.5083 15.9125 42.3948C14.8138 42.2813 13.831 43.0799 13.7175 44.1786L17.6963 44.5897ZM15.4302 43.9385C14.3272 43.8804 13.3858 44.7275 13.3277 45.8305C13.2696 46.9335 14.1167 47.8749 15.2197 47.933L15.4302 43.9385ZM14.293 47.8732C15.3947 47.9525 16.3521 47.1237 16.4314 46.022C16.5107 44.9203 15.6819 43.9629 14.5802 43.8836L14.293 47.8732ZM14.3998 43.8709C13.3 43.7686 12.3255 44.5772 12.2232 45.6771C12.1209 46.7769 12.9295 47.7514 14.0293 47.8537L14.3998 43.8709ZM14.0293 47.8537C15.1291 47.956 16.1036 47.1474 16.2059 46.0476C16.3082 44.9477 15.4996 43.9732 14.3998 43.8709L14.0293 47.8537ZM14.3772 43.8689C13.2763 43.7791 12.311 44.5987 12.2211 45.6996C12.1312 46.8005 12.9508 47.7658 14.0517 47.8557L14.3772 43.8689ZM14.0516 47.8557C15.1526 47.9455 16.1179 47.1259 16.2077 46.025C16.2976 44.9241 15.478 43.9588 14.3771 43.8689L14.0516 47.8557ZM14.455 43.8768C13.3584 43.7439 12.3618 44.5251 12.2289 45.6216C12.0959 46.7182 12.8771 47.7148 13.9737 47.8478L14.455 43.8768ZM13.9736 47.8477C15.0701 47.9807 16.0668 47.1995 16.1997 46.1029C16.3326 45.0064 15.5515 44.0097 14.4549 43.8768L13.9736 47.8477ZM13.9866 43.8407C12.8848 43.7628 11.9285 44.5929 11.8506 45.6947C11.7728 46.7966 12.6029 47.7529 13.7047 47.8307L13.9866 43.8407ZM12.3254 47.7589C13.4297 47.7834 14.3447 46.9079 14.3691 45.8036C14.3935 44.6993 13.5181 43.7843 12.4138 43.7599L12.3254 47.7589ZM10.2754 43.9099C9.18855 44.1068 8.46706 45.1475 8.66394 46.2344C8.86083 47.3213 9.90152 48.0427 10.9884 47.8459L10.2754 43.9099ZM8.27878 49.6618C8.65052 48.6217 8.10868 47.4771 7.06854 47.1054C6.02841 46.7336 4.88386 47.2755 4.51212 48.3156L8.27878 49.6618ZM4.30402 51.7582C4.52478 52.8405 5.5811 53.5389 6.66338 53.3182C7.74567 53.0974 8.44408 52.0411 8.22332 50.9588L4.30402 51.7582ZM9.62364 52.3321C8.58663 51.9517 7.43762 52.4841 7.05726 53.5211C6.6769 54.5581 7.20922 55.7071 8.24624 56.0874L9.62364 52.3321ZM10.1616 56.5956C11.2534 56.7629 12.2741 56.0134 12.4414 54.9216C12.6087 53.8297 11.8592 52.809 10.7674 52.6417L10.1616 56.5956ZM9.72001 53.6892C9.88728 54.781 10.908 55.5305 11.9998 55.3632C13.0916 55.196 13.8411 54.1753 13.6739 53.0834L9.72001 53.6892ZM13.5377 52.8016C13.6615 51.704 12.872 50.7139 11.7743 50.5902C10.6767 50.4665 9.68663 51.256 9.56291 52.3536L13.5377 52.8016ZM13.5752 51.2779C12.6731 50.6406 11.4251 50.8553 10.7878 51.7575C10.1505 52.6597 10.3652 53.9076 11.2674 54.5449L13.5752 51.2779ZM11.3872 54.6261C12.2497 55.3161 13.5083 55.1763 14.1983 54.3137C14.8883 53.4512 14.7485 52.1926 13.8859 51.5026L11.3872 54.6261ZM13.886 51.5026C13.0234 50.8126 11.7648 50.9524 11.0748 51.815C10.3848 52.6775 10.5247 53.9361 11.3872 54.6261L13.886 51.5026ZM11.4702 54.689C12.3674 55.3332 13.617 55.128 14.2612 54.2308C14.9054 53.3335 14.7003 52.0839 13.803 51.4397L11.4702 54.689ZM13.8031 51.4398C12.9058 50.7956 11.6562 51.0007 11.012 51.898C10.3678 52.7953 10.573 54.0449 11.4703 54.6891L13.8031 51.4398ZM11.826 54.9413C12.7297 55.5766 13.9772 55.359 14.6124 54.4554C15.2476 53.5517 15.03 52.3042 14.1264 51.669L11.826 54.9413ZM15.3836 52.4874C14.4307 51.9288 13.2054 52.2484 12.6467 53.2013C12.0881 54.1542 12.4077 55.3795 13.3606 55.9381L15.3836 52.4874ZM12.5902 55.9358C12.4929 57.036 13.3059 58.0069 14.4062 58.1042C15.5064 58.2016 16.4773 57.3886 16.5746 56.2883L12.5902 55.9358ZM16.016 63.0417C16.0992 61.9402 15.2738 60.9799 14.1724 60.8966C13.0709 60.8134 12.1106 61.6388 12.0274 62.7402L16.016 63.0417ZM11.1403 64.8758C10.5143 65.7858 10.7446 67.031 11.6546 67.657C12.5647 68.283 13.8099 68.0528 14.4359 67.1427L11.1403 64.8758ZM12.2482 72.9366C12.3794 71.8398 11.5967 70.8444 10.5 70.7131C9.40323 70.5819 8.40775 71.3646 8.2765 72.4613L12.2482 72.9366ZM8.28161 76.581C8.4156 77.6774 9.41303 78.4576 10.5094 78.3237C11.6059 78.1897 12.3861 77.1922 12.2521 76.0958L8.28161 76.581ZM14.529 81.991C13.8917 81.0888 12.6437 80.8741 11.7415 81.5114C10.8394 82.1487 10.6247 83.3967 11.262 84.2989L14.529 81.991ZM11.8536 82.9592C10.7863 83.2436 10.1515 84.3393 10.4359 85.4067C10.7203 86.474 11.8161 87.1087 12.8834 86.8243L11.8536 82.9592ZM8.66351 89.917C9.26212 88.9887 8.99487 87.7509 8.06657 87.1523C7.13828 86.5537 5.90047 86.821 5.30185 87.7493L8.66351 89.917ZM9.77763 92.3334C10.8822 92.3334 11.7776 91.438 11.7776 90.3334C11.7776 89.2288 10.8822 88.3334 9.77763 88.3334V92.3334ZM24.2222 88.3334C23.1176 88.3334 22.2222 89.2288 22.2222 90.3334C22.2222 91.438 23.1176 92.3334 24.2222 92.3334V88.3334ZM28.1802 92.3334C29.2848 92.3334 30.1802 91.438 30.1802 90.3334C30.1802 89.2288 29.2848 88.3334 28.1802 88.3334V92.3334ZM29.5678 88.3334C28.4632 88.3334 27.5678 89.2288 27.5678 90.3334C27.5678 91.438 28.4632 92.3334 29.5678 92.3334V88.3334ZM33.5258 92.3334C34.6304 92.3334 35.5258 91.438 35.5258 90.3334C35.5258 89.2288 34.6304 88.3334 33.5258 88.3334V92.3334ZM47.9704 88.3334C46.8658 88.3334 45.9704 89.2288 45.9704 90.3334C45.9704 91.438 46.8658 92.3334 47.9704 92.3334V88.3334ZM52.6782 88.6291C51.8527 87.8952 50.5885 87.9696 49.8547 88.7951C49.1208 89.6207 49.1952 90.8848 50.0208 91.6187L52.6782 88.6291ZM49.1549 90.8957C50.0238 91.5777 51.281 91.4262 51.963 90.5573C52.645 89.6885 52.4935 88.4312 51.6246 87.7492L49.1549 90.8957ZM51.4259 90.8687C52.4894 90.5702 53.1094 89.466 52.8109 88.4026C52.5123 87.3391 51.4082 86.7191 50.3447 87.0176L51.4259 90.8687ZM52.8086 86.043C51.8286 86.5525 51.4471 87.76 51.9566 88.7401C52.4661 89.7201 53.6736 90.1016 54.6536 89.5921L52.8086 86.043ZM54.7287 89.4202C55.8205 89.2525 56.5696 88.2316 56.402 87.1398C56.2343 86.048 55.2133 85.2989 54.1216 85.4665L54.7287 89.4202ZM53.9697 85.5018C52.9074 85.8044 52.2916 86.9109 52.5942 87.9732C52.8969 89.0355 54.0034 89.6514 55.0657 89.3487L53.9697 85.5018ZM55.7397 89.0219C56.6637 88.4167 56.9222 87.1771 56.317 86.253C55.7118 85.329 54.4721 85.0705 53.5481 85.6757L55.7397 89.0219ZM53.9248 85.423C53.0144 86.0485 52.7834 87.2935 53.4089 88.204C54.0343 89.1144 55.2794 89.3454 56.1898 88.7199L53.9248 85.423ZM57.903 89.405C59.0026 89.5096 59.9788 88.703 60.0834 87.6034C60.188 86.5037 59.3814 85.5275 58.2818 85.4229L57.903 89.405ZM69.0124 84.114C67.985 84.5196 67.481 85.6813 67.8866 86.7087C68.2923 87.7361 69.4539 88.2401 70.4813 87.8345L69.0124 84.114ZM75.5133 85.1412C76.4414 84.5422 76.7081 83.3043 76.1092 82.3762C75.5102 81.4481 74.2723 81.1814 73.3442 81.7803L75.5133 85.1412ZM80.0171 76.0523C79.3113 76.902 79.4279 78.1629 80.2776 78.8687C81.1273 79.5745 82.3882 79.4579 83.094 78.6082L80.0171 76.0523ZM85.9485 74.3699C86.4702 73.3963 86.1038 72.1841 85.1301 71.6625C84.1565 71.1408 82.9443 71.5072 82.4227 72.4808L85.9485 74.3699ZM85.3191 64.0898C85.0714 65.1662 85.7432 66.2397 86.8196 66.4874C87.896 66.7351 88.9695 66.0634 89.2172 64.9869L85.3191 64.0898ZM90.0761 60.2523C90.1663 59.1514 89.347 58.1859 88.2461 58.0957C87.1452 58.0055 86.1797 58.8248 86.0895 59.9257L90.0761 60.2523ZM85.4899 51.7828C85.6693 52.8727 86.6982 53.6109 87.7882 53.4315C88.8781 53.2521 89.6162 52.2231 89.4368 51.1332L85.4899 51.7828ZM88.7041 46.8467C88.5254 45.7567 87.4969 45.0179 86.4069 45.1965C85.3169 45.3752 84.5781 46.4037 84.7568 47.4937L88.7041 46.8467ZM84.4141 38.1129C84.2016 39.1968 84.908 40.2478 85.9919 40.4604C87.0758 40.6729 88.1268 39.9666 88.3394 38.8826L84.4141 38.1129ZM89.6788 35.7236C90.2974 34.8085 90.057 33.5652 89.1419 32.9467C88.2267 32.3281 86.9834 32.5685 86.3649 33.4836L89.6788 35.7236ZM95.7465 29.9881C94.6826 29.6911 93.5794 30.3129 93.2824 31.3768C92.9855 32.4407 93.6072 33.5439 94.6711 33.8408L95.7465 29.9881ZM96.2809 34.4821C97.1507 35.1629 98.4077 35.0097 99.0886 34.1399C99.7694 33.2701 99.6162 32.0131 98.7464 31.3323L96.2809 34.4821ZM100.325 33.1491C99.7025 32.2369 98.4581 32.0023 97.5459 32.6252C96.6337 33.2481 96.3991 34.4925 97.022 35.4047L100.325 33.1491ZM98.0927 36.9458C98.7593 37.8265 100.014 38.0001 100.894 37.3335C101.775 36.6669 101.949 35.4125 101.282 34.5317L98.0927 36.9458ZM104.246 36.2937C103.144 36.2319 102.199 37.0758 102.138 38.1786C102.076 39.2815 102.92 40.2256 104.023 40.2874L104.246 36.2937ZM108.971 38.2687C109.672 37.4149 109.548 36.1547 108.694 35.4539C107.84 34.7532 106.58 34.8773 105.879 35.7312L108.971 38.2687ZM107.798 27.9731C107.817 29.0775 108.729 29.9569 109.833 29.9373C110.937 29.9177 111.817 29.0065 111.797 27.9021L107.798 27.9731ZM111.147 22.752C110.892 21.6772 109.814 21.0125 108.74 21.2673C107.665 21.5221 107 22.5999 107.255 23.6747L111.147 22.752ZM103.506 15.9585C104.196 16.8205 105.455 16.9594 106.317 16.2687C107.179 15.5781 107.318 14.3194 106.627 13.4574L103.506 15.9585ZM102.959 9.78351C102.1 9.08913 100.841 9.2226 100.147 10.0816C99.4523 10.9406 99.5858 12.1999 100.445 12.8943L102.959 9.78351ZM92.7001 8.73039C93.7452 9.08797 94.8822 8.53064 95.2398 7.48555C95.5974 6.44046 95.0401 5.30337 93.995 4.94579L92.7001 8.73039ZM88.9703 3.62493C87.8835 3.42785 86.8427 4.14915 86.6456 5.23599C86.4485 6.32284 87.1698 7.36366 88.2566 7.56075L88.9703 3.62493ZM79.0711 7.64316C80.1508 7.41026 80.8373 6.34616 80.6044 5.26643C80.3715 4.18669 79.3074 3.50019 78.2277 3.73309L79.0711 7.64316ZM73.0707 5.43608C72.0645 5.89165 71.6181 7.07668 72.0736 8.08293C72.5292 9.08918 73.7142 9.5356 74.7205 9.08004L73.0707 5.43608ZM67.271 14.4668C68.0292 13.6635 67.9925 12.3977 67.1892 11.6396C66.3858 10.8815 65.12 10.9181 64.3619 11.7214L67.271 14.4668ZM61.0373 15.9075C60.4241 16.8263 60.6719 18.0682 61.5906 18.6813C62.5094 19.2945 63.7512 19.0467 64.3644 18.1279L61.0373 15.9075ZM60.409 26.6446C60.7205 25.5849 60.114 24.4733 59.0543 24.1617C57.9946 23.8502 56.8829 24.4567 56.5714 25.5164L60.409 26.6446ZM55.4533 30.7039C55.3013 31.798 56.065 32.8081 57.159 32.9602C58.2531 33.1122 59.2632 32.3485 59.4152 31.2544L55.4533 30.7039ZM59.5898 40.5977C59.3866 39.512 58.3418 38.7965 57.256 38.9997C56.1703 39.2028 55.4548 40.2477 55.658 41.3334L59.5898 40.5977ZM59.1154 41.3569C58.4109 40.5061 57.1501 40.3876 56.2994 41.0922C55.4487 41.7967 55.3301 43.0575 56.0347 43.9082L59.1154 41.3569ZM53.4934 41.2099C54.3007 41.9637 55.5663 41.9204 56.3201 41.113C57.074 40.3057 57.0306 39.0401 56.2233 38.2863L53.4934 41.2099ZM53.8584 36.1709C53.0402 35.4288 51.7754 35.4905 51.0333 36.3087C50.2912 37.1269 50.3529 38.3917 51.1711 39.1338L53.8584 36.1709ZM44.9789 32.7482C45.6786 33.6029 46.9386 33.7287 47.7934 33.0291C48.6481 32.3295 48.7739 31.0694 48.0743 30.2147L44.9789 32.7482ZM45.6707 26.9238C45.072 25.9956 43.8341 25.7286 42.9059 26.3274C41.9777 26.9262 41.7107 28.164 42.3095 29.0922L45.6707 26.9238ZM38.3325 20.9689C38.7047 22.0089 39.8495 22.5502 40.8895 22.1779C41.9294 21.8056 42.4707 20.6608 42.0985 19.6209L38.3325 20.9689ZM40.8283 16.0168C40.3675 15.0129 39.1802 14.5726 38.1763 15.0334C37.1725 15.4941 36.7322 16.6815 37.193 17.6854L40.8283 16.0168ZM34.0316 14.1614C34.9728 14.7395 36.2044 14.4451 36.7825 13.5039C37.3606 12.5626 37.0662 11.331 36.125 10.7529L34.0316 14.1614ZM35.5757 12.5887C35.6665 12.3908 35.7513 12.1904 35.8298 11.9885L32.1016 10.5393C32.0518 10.6673 31.9979 10.7948 31.94 10.921L35.5757 12.5887ZM36.465 9.38833C36.4878 9.14876 36.5 8.90758 36.5 8.66667H32.5C32.5 8.77248 32.4946 8.88704 32.4829 9.00973L36.465 9.38833ZM36.5 8.66667C36.5 8.01381 36.4101 7.35063 36.2573 6.70941L32.3663 7.63679C32.4587 8.02455 32.5 8.37397 32.5 8.66667H36.5ZM31.8474 0.572569C31.1502 0.223202 30.3579 0 29.5 0V4C29.6517 4 29.8341 4.03781 30.0556 4.14879L31.8474 0.572569ZM29.5 0C28.6421 0 27.8498 0.223202 27.1526 0.572569L28.9444 4.14879C29.1659 4.03781 29.3483 4 29.5 4V0ZM22.7427 6.70941C22.5899 7.35063 22.5 8.01381 22.5 8.66667H26.5C26.5 8.37397 26.5413 8.02455 26.6337 7.63679L22.7427 6.70941ZM22.5 8.66667C22.5 8.78482 22.5029 8.90294 22.5086 9.02078L26.504 8.82843C26.5013 8.77234 26.5 8.7184 26.5 8.66667H22.5ZM22.6827 10.3551C22.7048 10.461 22.7287 10.5668 22.7544 10.6722L26.6407 9.72525C26.6254 9.66243 26.6113 9.60028 26.5985 9.53891L22.6827 10.3551ZM24.6497 8.19931C24.5878 8.20079 24.5261 8.20244 24.4647 8.20426L24.5829 12.2025C24.6369 12.2009 24.691 12.1995 24.7454 12.1982L24.6497 8.19931ZM23.7258 8.23432C23.6641 8.23751 23.6026 8.24086 23.5414 8.24436L23.7698 12.2378C23.8238 12.2348 23.878 12.2318 23.9325 12.229L23.7258 8.23432ZM25.6511 10.3752C25.6528 10.3502 25.6543 10.3252 25.6557 10.3001L21.6621 10.074C21.6615 10.0849 21.6608 10.0959 21.6601 10.107L25.6511 10.3752ZM25.6663 9.99454C25.6666 9.9686 25.6667 9.94264 25.6667 9.91667H21.6667C21.6667 9.92665 21.6667 9.93677 21.6666 9.94702L25.6663 9.99454ZM25.6667 9.91667C25.6667 9.38091 25.6005 8.83932 25.4882 8.31662L21.5774 9.15642C21.6398 9.4468 21.6667 9.70463 21.6667 9.91667H25.6667ZM22.0353 3.07731C21.43 2.73472 20.7131 2.5 19.9167 2.5V6.5C19.9173 6.5 19.9262 6.49982 19.9472 6.50584C19.9695 6.51222 20.0088 6.5266 20.0649 6.55833L22.0353 3.07731ZM19.9167 2.5C19.1204 2.5 18.4035 2.73472 17.7982 3.07731L19.7686 6.55833C19.8247 6.5266 19.864 6.51222 19.8863 6.50584C19.9073 6.49982 19.9161 6.5 19.9167 6.5V2.5ZM14.3452 8.31662C14.233 8.83932 14.1667 9.38091 14.1667 9.91667H18.1667C18.1667 9.70463 18.1937 9.4468 18.2561 9.15642L14.3452 8.31662ZM14.1667 9.91667C14.1667 10.0646 14.1718 10.2124 14.1813 10.3593L18.1729 10.0999C18.1687 10.0349 18.1667 9.97371 18.1667 9.91667H14.1667ZM14.4595 11.9864C14.4942 12.1142 14.5317 12.2416 14.572 12.3683L18.3842 11.157C18.3609 11.0836 18.3394 11.0106 18.3197 10.9381L14.4595 11.9864ZM15.7045 9.91828C14.8403 10.2807 13.9113 10.7182 12.9591 11.2229L14.8327 14.757C15.6804 14.3076 16.5006 13.922 17.2516 13.607L15.7045 9.91828ZM3.52284 19.1712C2.9049 20.1275 2.39779 21.1621 2.07037 22.2675L5.90567 23.4035C6.10698 22.7239 6.43479 22.0349 6.88247 21.3421L3.52284 19.1712ZM3.89806 20.8375C3.54604 20.8534 3.20354 20.9142 2.87725 21.015L4.05793 24.8368C4.06286 24.8352 4.0692 24.8339 4.07799 24.8335L3.89806 20.8375ZM0.130384 23.8911C0.0449215 24.2209 0 24.565 0 24.9167H4C4 24.9064 4.00124 24.8993 4.00254 24.8943L0.130384 23.8911ZM0 24.9167C0 25.2961 0.0522779 25.6678 0.132322 26.0111L4.0278 25.1026C4.00356 24.9987 4 24.9355 4 24.9167H0ZM2.49942 29.4149C2.9383 29.6573 3.47538 29.8334 4.08333 29.8334V25.8334C4.26152 25.8334 4.38403 25.8863 4.43285 25.9132L2.49942 29.4149ZM4.095 29.8333L4.09713 29.8333L4.07379 25.8334L4.07166 25.8334L4.095 29.8333ZM4.10563 29.8333L4.10775 29.8333L4.08441 25.8333L4.08229 25.8333L4.10563 29.8333ZM2.17007 28.3722C2.44723 29.3627 2.82457 30.2606 3.29104 31.0741L6.761 29.0843C6.4653 28.5686 6.21352 27.9784 6.0221 27.2944L2.17007 28.3722ZM12.2577 37.349C13.0656 37.6127 13.8756 37.8518 14.6418 38.078L15.7745 34.2417C14.9995 34.0129 14.2439 33.7896 13.4989 33.5465L12.2577 37.349ZM14.6541 38.0816L14.6542 38.0816L15.7622 34.2381L15.7621 34.2381L14.6541 38.0816ZM14.6546 38.0817L14.6547 38.0818L15.7628 34.2383L15.7627 34.2383L14.6546 38.0817ZM14.6424 38.0782C14.7212 38.1014 14.7996 38.1246 14.8778 38.1477L16.0117 34.3118C15.9328 34.2885 15.8539 34.2652 15.7751 34.2419L14.6424 38.0782ZM15.8063 38.4251C15.8829 38.4484 15.9591 38.4716 16.0348 38.4949L17.2111 34.6718C17.1305 34.647 17.0498 34.6223 16.9691 34.5978L15.8063 38.4251ZM14.6342 36.3712L14.6341 36.3725L18.6115 36.7968L18.6117 36.7955L14.6342 36.3712ZM14.6336 36.3776L14.6334 36.3789L18.6109 36.8032L18.611 36.8019L14.6336 36.3776ZM17.0387 34.6349L17.0326 34.6336L16.1996 38.5459L16.2056 38.5472L17.0387 34.6349ZM17.0085 34.6284L17.0024 34.6272L16.1694 38.5395L16.1754 38.5407L17.0085 34.6284ZM14.6036 36.3181C14.5447 36.7578 14.478 37.2918 14.405 37.9035L18.3769 38.3772C18.4485 37.7766 18.5128 37.2629 18.5682 36.8486L14.6036 36.3181ZM13.7175 44.1786C13.6648 44.6887 13.6114 45.2117 13.5574 45.7452L17.5371 46.1478C17.5908 45.617 17.6439 45.0969 17.6963 44.5897L13.7175 44.1786ZM15.6342 43.9484C15.567 43.9455 15.499 43.9422 15.4302 43.9385L15.2197 47.933C15.2995 47.9372 15.3797 47.9411 15.4603 47.9446L15.6342 43.9484ZM14.5802 43.8836C14.5072 43.8783 14.434 43.873 14.3597 43.8676L14.0695 47.857C14.1435 47.8624 14.2183 47.8679 14.293 47.8732L14.5802 43.8836ZM14.3999 43.8709L14.3998 43.8709L14.0293 47.8537H14.0294L14.3999 43.8709ZM14.3998 43.8709H14.3997L14.0292 47.8537L14.0293 47.8537L14.3998 43.8709ZM14.3772 43.8689H14.3772L14.0517 47.8557L14.0518 47.8557L14.3772 43.8689ZM14.3771 43.8689L14.3771 43.8689L14.0516 47.8557H14.0516L14.3771 43.8689ZM14.455 43.8768L14.455 43.8768L13.9737 47.8478H13.9737L14.455 43.8768ZM14.4549 43.8768H14.4549L13.9736 47.8477L13.9736 47.8477L14.4549 43.8768ZM14.3594 43.8675C14.2372 43.8587 14.1123 43.8496 13.9866 43.8407L13.7047 47.8307C13.8255 47.8393 13.9463 47.8481 14.0691 47.857L14.3594 43.8675ZM12.4138 43.7599C12.2773 43.7569 12.1393 43.7552 12.0001 43.7552V47.7552C12.1072 47.7552 12.2156 47.7565 12.3254 47.7589L12.4138 43.7599ZM12.0001 43.7552C11.4209 43.7552 10.8417 43.8073 10.2754 43.9099L10.9884 47.8459C11.319 47.786 11.6596 47.7552 12.0001 47.7552V43.7552ZM4.51212 48.3156C4.28562 48.9494 4.16675 49.6279 4.16675 50.3386H8.16675C8.16675 50.0789 8.20929 49.8562 8.27878 49.6618L4.51212 48.3156ZM4.16675 50.3386C4.16675 50.8333 4.21195 51.3068 4.30402 51.7582L8.22332 50.9588C8.18964 50.7937 8.16675 50.5895 8.16675 50.3386H4.16675ZM8.24624 56.0874C8.66624 56.2415 9.07274 56.3558 9.43168 56.4455L10.4018 52.5649C10.125 52.4957 9.86536 52.4207 9.62364 52.3321L8.24624 56.0874ZM9.43168 56.4455C9.67542 56.5064 9.92033 56.5586 10.1616 56.5956L10.7674 52.6417C10.6787 52.6281 10.5589 52.6042 10.4018 52.5649L9.43168 56.4455ZM13.6739 53.0834C13.6369 52.8422 13.5847 52.5972 13.5238 52.3535L9.64322 53.3236C9.68249 53.4807 9.70642 53.6005 9.72001 53.6892L13.6739 53.0834ZM13.5238 52.3535C13.522 52.3463 13.5303 52.377 13.5376 52.4348C13.5439 52.4846 13.5583 52.6191 13.5377 52.8016L9.56291 52.3536C9.51434 52.7844 9.60217 53.1594 9.64322 53.3236L13.5238 52.3535ZM11.2674 54.5449C11.3316 54.5903 11.4 54.6391 11.4762 54.6933L13.7969 51.4354C13.7222 51.3822 13.6471 51.3287 13.5752 51.2779L11.2674 54.5449ZM11.3872 54.6261L11.3872 54.6261L13.8859 51.5026L13.8859 51.5026L11.3872 54.6261ZM11.3872 54.6261L11.3872 54.6261L13.886 51.5026L13.886 51.5026L11.3872 54.6261ZM11.4702 54.689L11.4702 54.689L13.803 51.4397L13.803 51.4397L11.4702 54.689ZM11.4703 54.6891L11.4703 54.6891L13.8031 51.4398L13.8031 51.4398L11.4703 54.6891ZM11.4763 54.6934C11.5818 54.7686 11.7 54.8527 11.826 54.9413L14.1264 51.669C14.0121 51.5886 13.9037 51.5114 13.7971 51.4355L11.4763 54.6934ZM13.3606 55.9381C13.4935 56.016 13.6306 56.094 13.772 56.1716L15.6965 52.665C15.5902 52.6067 15.4859 52.5473 15.3836 52.4874L13.3606 55.9381ZM12.7424 54.2375C12.6909 54.8051 12.6401 55.3719 12.5902 55.9358L16.5746 56.2883C16.6242 55.7276 16.6748 55.1638 16.7261 54.5991L12.7424 54.2375ZM12.0274 62.7402C11.9831 63.3262 11.9414 63.8961 11.9027 64.4465L15.8929 64.727C15.931 64.1843 15.9722 63.6214 16.016 63.0417L12.0274 62.7402ZM12.3973 63.2644C11.9472 63.7751 11.5273 64.3131 11.1403 64.8758L14.4359 67.1427C14.732 66.7122 15.0535 66.3002 15.3983 65.9091L12.3973 63.2644ZM8.2765 72.4613C8.19642 73.1305 8.15531 73.8109 8.15531 74.5H12.1553C12.1553 73.9701 12.1869 73.4484 12.2482 72.9366L8.2765 72.4613ZM8.15531 74.5C8.15531 75.2037 8.19817 75.8982 8.28161 76.581L12.2521 76.0958C12.1883 75.5736 12.1553 75.0411 12.1553 74.5H8.15531ZM11.262 84.2989C11.6641 84.8681 12.1003 85.4115 12.5675 85.9259L15.5286 83.2367C15.1707 82.8426 14.8368 82.4266 14.529 81.991L11.262 84.2989ZM13.8283 82.5934C13.1423 82.6693 12.4839 82.7913 11.8536 82.9592L12.8834 86.8243C13.3094 86.7108 13.7699 86.6242 14.2678 86.5692L13.8283 82.5934ZM5.30185 87.7493C4.94275 88.3061 4.6259 88.8926 4.34735 89.5023L7.98562 91.1645C8.19075 90.7155 8.41681 90.2996 8.66351 89.917L5.30185 87.7493ZM6.16649 92.3334H9.77763V88.3334H6.16649V92.3334ZM24.2222 92.3334H27.8333V88.3334H24.2222V92.3334ZM27.8333 92.3334H28.1802V88.3334H27.8333V92.3334ZM29.5678 92.3334H29.9147V88.3334H29.5678V92.3334ZM29.9147 92.3334H33.5258V88.3334H29.9147V92.3334ZM47.9704 92.3334H51.5815V88.3334H47.9704V92.3334ZM52.934 88.8601C52.8494 88.7824 52.7642 88.7054 52.6782 88.6291L50.0208 91.6187C50.0909 91.681 50.1603 91.7437 50.229 91.8068L52.934 88.8601ZM51.6246 87.7492C51.535 87.6789 51.4448 87.6092 51.354 87.5401L48.9308 90.7225C49.006 90.7798 49.0808 90.8376 49.1549 90.8957L51.6246 87.7492ZM50.5832 91.0821C50.8669 91.018 51.1478 90.9468 51.4259 90.8687L50.3447 87.0176C50.1325 87.0772 49.9181 87.1315 49.7016 87.1805L50.5832 91.0821ZM54.6536 89.5921C54.911 89.4583 55.1645 89.3182 55.4139 89.1718L53.3897 85.7218C53.199 85.8337 53.0053 85.9408 52.8086 86.043L54.6536 89.5921ZM54.6857 89.4266C54.6998 89.4245 54.7142 89.4224 54.7287 89.4202L54.1216 85.4665C54.1212 85.4666 54.12 85.4668 54.1178 85.4671L54.6857 89.4266ZM55.0657 89.3487C55.0981 89.3395 55.3539 89.2719 55.6258 89.096L53.4533 85.7374C53.6102 85.6359 53.7458 85.5803 53.8059 85.5569C53.8774 85.5291 53.9356 85.5115 53.9697 85.5018L55.0657 89.3487ZM55.6261 89.0959C55.664 89.0713 55.7019 89.0467 55.7397 89.0219L53.5481 85.6757C53.5165 85.6964 53.4848 85.717 53.4531 85.7376L55.6261 89.0959ZM56.1898 88.7199C56.2271 88.6943 56.2642 88.6687 56.3013 88.6429L54.0181 85.3585C53.9871 85.3801 53.956 85.4016 53.9248 85.423L56.1898 88.7199ZM54.7939 88.967C55.7915 89.1526 56.8319 89.3031 57.903 89.405L58.2818 85.4229C57.3368 85.3331 56.4143 85.1998 55.5256 85.0344L54.7939 88.967ZM70.4813 87.8345C71.4732 87.4429 72.4535 86.975 73.413 86.4215L71.4145 82.9566C70.6315 83.4082 69.8288 83.7917 69.0124 84.114L70.4813 87.8345ZM73.413 86.4215C74.1473 85.998 74.8467 85.5713 75.5133 85.1412L73.3442 81.7803C72.7364 82.1726 72.094 82.5647 71.4145 82.9566L73.413 86.4215ZM83.094 78.6082C84.2416 77.2267 85.1744 75.8146 85.9485 74.3699L82.4227 72.4808C81.7704 73.6983 80.9862 74.8857 80.0171 76.0523L83.094 78.6082ZM89.2172 64.9869C89.3951 64.2141 89.564 63.4335 89.7305 62.6493L85.8177 61.8187C85.6531 62.5942 85.4895 63.3494 85.3191 64.0898L89.2172 64.9869ZM89.7305 62.6493C89.8993 61.8542 90.0105 61.0533 90.0761 60.2523L86.0895 59.9257C86.0361 60.5768 85.9473 61.208 85.8177 61.8187L89.7305 62.6493ZM89.4368 51.1332C89.3172 50.4067 89.1912 49.684 89.0681 48.9771L85.1274 49.6637C85.2512 50.3737 85.3738 51.0779 85.4899 51.7828L89.4368 51.1332ZM89.0681 48.9771C88.9418 48.2524 88.8185 47.5447 88.7041 46.8467L84.7568 47.4937C84.875 48.2149 85.0018 48.9426 85.1274 49.6637L89.0681 48.9771ZM88.3394 38.8826C88.4567 38.2842 88.6252 37.7379 88.8492 37.2388L85.1998 35.601C84.8353 36.4133 84.5821 37.2561 84.4141 38.1129L88.3394 38.8826ZM88.8492 37.2388C89.1192 36.6371 89.399 36.1377 89.6788 35.7236L86.3649 33.4836C85.9424 34.1087 85.5535 34.813 85.1998 35.601L88.8492 37.2388ZM94.6711 33.8408C95.2719 34.0085 95.8143 34.2441 96.2482 34.4586L98.0206 30.8727C97.4527 30.592 96.6675 30.2452 95.7465 29.9881L94.6711 33.8408ZM96.2482 34.4586C96.2409 34.455 96.2516 34.4592 96.2809 34.4821L98.7464 31.3323C98.533 31.1652 98.2919 31.0068 98.0206 30.8727L96.2482 34.4586ZM97.022 35.4047C97.0998 35.5187 97.1791 35.6368 97.2651 35.7648L100.586 33.5358C100.502 33.4102 100.414 33.2786 100.325 33.1491L97.022 35.4047ZM97.2651 35.7648C97.4987 36.1129 97.7781 36.5301 98.0927 36.9458L101.282 34.5317C101.047 34.221 100.829 33.8972 100.586 33.5358L97.2651 35.7648ZM104.023 40.2874C104.551 40.317 105.104 40.3002 105.683 40.2358L105.24 36.2604C104.864 36.3022 104.535 36.3098 104.246 36.2937L104.023 40.2874ZM105.683 40.2358C107.087 40.0795 108.188 39.2229 108.971 38.2687L105.879 35.7312C105.683 35.9699 105.517 36.1093 105.399 36.1849C105.342 36.2216 105.3 36.2407 105.275 36.2502C105.262 36.2549 105.253 36.2575 105.248 36.2588C105.243 36.2601 105.24 36.2604 105.24 36.2604L105.683 40.2358ZM111.797 27.9021C111.768 26.2519 111.565 24.5139 111.147 22.752L107.255 23.6747C107.604 25.1469 107.773 26.5989 107.798 27.9731L111.797 27.9021ZM106.627 13.4574C105.587 12.1593 104.37 10.924 102.959 9.78351L100.445 12.8943C101.631 13.8528 102.644 14.8834 103.506 15.9585L106.627 13.4574ZM93.995 4.94579C93.2196 4.68048 92.4154 4.43547 91.5817 4.21208L90.5464 8.07579C91.295 8.27636 92.0125 8.49513 92.7001 8.73039L93.995 4.94579ZM91.5817 4.21208C90.7017 3.97629 89.8311 3.78101 88.9703 3.62493L88.2566 7.56075C89.0069 7.6968 89.7703 7.86782 90.5464 8.07579L91.5817 4.21208ZM78.2277 3.73309C76.4207 4.12285 74.6989 4.69895 73.0707 5.43608L74.7205 9.08004C76.0958 8.45739 77.5476 7.97178 79.0711 7.64316L78.2277 3.73309ZM64.3619 11.7214C63.1398 13.0165 62.0296 14.4206 61.0373 15.9075L64.3644 18.1279C65.2377 16.8193 66.2092 15.592 67.271 14.4668L64.3619 11.7214ZM56.5714 25.5164C56.0717 27.2159 55.6966 28.9529 55.4533 30.7039L59.4152 31.2544C59.6311 29.7007 59.9644 28.1569 60.409 26.6446L56.5714 25.5164ZM55.658 41.3334C55.8229 42.2146 56.0267 43.088 56.2707 43.9503L60.1196 42.8614C59.9094 42.1183 59.7329 41.3629 59.5898 40.5977L55.658 41.3334ZM59.775 42.1794C59.5592 41.9014 59.3393 41.6272 59.1154 41.3569L56.0347 43.9082C56.2317 44.1461 56.4253 44.3875 56.6153 44.6323L59.775 42.1794ZM56.2233 38.2863C55.9659 38.046 55.7048 37.81 55.44 37.5782L52.806 40.5885C53.0384 40.7919 53.2675 40.999 53.4934 41.2099L56.2233 38.2863ZM55.44 37.5782C54.8998 37.1055 54.3727 36.6374 53.8584 36.1709L51.1711 39.1338C51.7062 39.6191 52.2514 40.1033 52.806 40.5885L55.44 37.5782ZM48.0743 30.2147C47.2156 29.1655 46.4144 28.0766 45.6707 26.9238L42.3095 29.0922C43.1413 30.3816 44.0326 31.592 44.9789 32.7482L48.0743 30.2147ZM42.0985 19.6209C41.8732 18.9916 41.658 18.3412 41.453 17.6677L37.6263 18.8324C37.8495 19.5658 38.0849 20.2774 38.3325 20.9689L42.0985 19.6209ZM41.453 17.6677C41.2769 17.0892 41.068 16.5391 40.8283 16.0168L37.193 17.6854C37.3558 18.04 37.5013 18.4215 37.6263 18.8324L41.453 17.6677ZM36.125 10.7529C35.6268 10.447 35.1135 10.1761 34.591 9.93671L32.9247 13.5731C33.3108 13.75 33.6805 13.9458 34.0316 14.1614L36.125 10.7529Z" fill="black"/>
</svg>
