<svg width="113" height="98" viewBox="0 0 113 98" fill="none" xmlns="http://www.w3.org/2000/svg">
<path d="M17.5002 56.4219C21.5002 56.4219 25.278 54.1997 26.6668 53.0886C42.6669 41.7552 29.7224 39.1997 21.2501 39.3386C20.8334 40.8664 19.5834 44.2552 17.9167 45.5886C15.8334 47.2552 12.9167 46.4219 10.0001 46.4219C7.08341 46.4219 4.16675 48.0886 4.16675 51.0052C4.16675 53.9219 6.25008 54.7552 7.91675 55.1719C9.58341 55.5886 10.0002 55.1719 9.58351 53.5052C9.16684 51.8386 12.5002 56.4219 17.5002 56.4219Z" fill="#A23115"/>
<path fill-rule="evenodd" clip-rule="evenodd" d="M26.4759 89.7978C33.1623 88.2868 38.1554 82.3098 38.1554 75.1666C38.1554 66.8824 31.4397 60.1666 23.1554 60.1666C14.8711 60.1666 8.1554 66.8824 8.1554 75.1666C8.1554 79.0477 9.62939 82.5846 12.0481 85.2479C8.1079 85.6835 5.60996 87.8411 4.16675 91H27.9149C27.4586 90.5811 26.9775 90.1798 26.4759 89.7978Z" fill="#A23115"/>
<path d="M70.4138 85.3557C61.1191 90.7167 49.5187 87.3371 44.8803 84.9772C50.9638 78.0695 61.8346 60.5076 56.6502 45.5219C50.1698 26.7897 64.9229 0.341952 89.0641 6.81056C113.205 13.2792 109.141 38.2822 103.461 38.9147C97.7815 39.5472 97.25 34.3779 95.1344 33.3323C93.0188 32.2866 87.9973 30.4624 85.0245 37.0865C82.0517 43.7106 87.6011 54.2939 85.7741 62.9007C83.9471 71.5074 82.0321 78.6543 70.4138 85.3557Z" fill="#A23115"/>
<path d="M32.5 9.33329C32.5 12.0947 30.2614 16 27.5 16C24.7386 16 22.5 12.0947 22.5 9.33329C22.5 6.57187 24.7386 2.66663 27.5 2.66663C30.2614 2.66663 32.5 6.57187 32.5 9.33329Z" fill="#E6752A"/>
<path d="M21.6667 10.5833C21.6667 12.8269 19.9878 16 17.9167 16C15.8457 16 14.1667 12.8269 14.1667 10.5833C14.1667 8.33964 15.8457 5.16663 17.9167 5.16663C19.9878 5.16663 21.6667 8.33964 21.6667 10.5833Z" fill="#A23115"/>
<path d="M12.123 72.6666C11.4563 69.3333 13.5118 47.6666 14.623 37.2499C9.20635 35.5833 2.53965 34.3333 1.70632 26.4166C0.872985 18.5 13.4335 12.2378 17.5397 11.4166C21.7062 10.5833 34.623 9.33327 37.5396 18.9166C40.4563 28.4999 45.4563 33.9166 52.123 39.7499C58.7896 45.5833 62.9563 54.3333 63.373 64.7499C63.7896 75.1666 59.6229 83.5 52.5396 88.0833C52.1898 88.3096 30.4563 89.3333 23.7897 87.2499C17.123 85.1666 12.9563 76.8333 12.123 72.6666Z" fill="#E6752A"/>
<path d="M4.16667 25.5833C4.16667 26.7339 3.23393 28.4999 2.08333 28.4999C0.93274 28.4999 0 26.7339 0 25.5833C0 24.4327 0.93274 23.4999 2.08333 23.4999C3.23393 23.4999 4.16667 24.4327 4.16667 25.5833Z" fill="black"/>
<circle cx="21.2501" cy="23.9166" r="5.33333" fill="black" stroke="white" stroke-width="1.5"/>
<rect x="21.6667" y="20.9999" width="2.5" height="2.5" rx="1.25" fill="white"/>
<path d="M24.5859 37.25C21.2526 38.25 16.5303 37.6667 14.5859 37.25C13.7496 43.5 11.1221 70.49 11.6663 72.6667C13.75 81 18.75 90.1667 36.2526 88.5C36.5304 73.7778 39.5833 67.1666 39.5833 63.5C39.5833 58.9166 28.7526 36 24.5859 37.25Z" fill="#D9D9D9"/>
<path fill-rule="evenodd" clip-rule="evenodd" d="M48.1424 89.7978C54.8288 88.2868 59.8219 82.3098 59.8219 75.1666C59.8219 66.8824 53.1062 60.1666 44.8219 60.1666C36.5376 60.1666 29.8219 66.8824 29.8219 75.1666C29.8219 79.0477 31.2959 82.5846 33.7146 85.2479C29.7744 85.6835 27.2765 87.8411 25.8333 91H49.5814C49.1251 90.5811 48.644 90.1798 48.1424 89.7978Z" fill="#E6752A"/>
<path d="M27.5002 56.4219C31.5002 56.4219 35.278 54.1997 36.6668 53.0886C52.6669 41.7552 39.7224 39.1997 31.2501 39.3386C30.8334 40.8664 29.5834 44.2552 27.9167 45.5886C25.8334 47.2552 22.9167 46.4219 20.0001 46.4219C17.0834 46.4219 14.1667 48.0886 14.1667 51.0052C14.1667 53.9219 16.2501 54.7552 17.9167 55.1719C19.5834 55.5886 20.0002 55.1719 19.5835 53.5052C19.1668 51.8386 22.5002 56.4219 27.5002 56.4219Z" fill="#E6752A"/>
</svg>
