<svg version="1.1" xmlns="http://www.w3.org/2000/svg" viewBox="0 0 125.60047055111045 133.7366653847655" width="125.60047055111045" height="133.7366653847655">
  <!-- svg-source:excalidraw -->
  
<path d="M56.519 9.544 L54.291841308664914 7.248301214387283 L51.384837993549496 6.439103786752245 L48.44737518008755 7.129597066883468 L46.128837993712864 9.33297040456954 L4.898 84.19 L4.1478424762807204 87.2670045665187 L4.9877793343885095 90.13731724802577 L7.096826525302042 92.25772130551996 L10.153999999999996 93.08499999999998 L92.372 93.085 L95.42917183865319 92.2577212918057 L97.53821805085883 90.13731720987269 L98.37815523763507 87.26700452300332 L97.62799999999999 84.19 L56.519 9.544" stroke="none" stroke-width="0" fill="#c7dcfc"></path><path d="M56.519 9.544 C54.29130043871067 5.49792931377063, 48.51898821285037 5.380690649378842, 46.128837993712864 9.33297040456954 C46.08680095818876 9.402481568821846, 46.046179916401385 9.472839277251097, 46.007000000000005 9.543999999999999 M46.007000000000005 9.543999999999999 C35.111908947895934 29.327379957560638, 24.216817895791863 49.11075991512128, 4.898 84.19 C2.695067469813438 88.18903768358763, 5.588344088555921 93.08547497781446, 10.153999999999996 93.08499999999998 M10.153999999999996 93.08499999999998 C28.157151666791176 93.08499999999998, 46.160303333582355 93.08499999999998, 92.372 93.085 C96.93765358073287 93.08547497992339, 99.83092788822402 88.18903757973712, 97.62799999999999 84.19 M97.62799999999999 84.19 C89.2310198956807 68.9427067827722, 80.83403979136142 53.69541356554441, 56.519 9.544" stroke="#242424" stroke-width="1.575" fill="none"></path></svg>