<svg version="1.1" xmlns="http://www.w3.org/2000/svg" viewBox="0 0 165.62306213171678 154.73487185572253" width="165.62306213171678" height="154.73487185572253">
  <!-- svg-source:excalidraw -->
  
  <path d="M73.836 3.283 L69.95899999957484 1.862177983468618 L66.082 3.2829999999999995 L12.495 48.654 L10.68571315195329 51.29161109387013 L10.468099403998991 54.30129162119147 L11.726517554378066 57.043895689231256 L14.345326401331487 58.880277405256734 L16.372000000000003 59.23299999999999 L123.547 59.233 L126.63218593907663 58.38914191534995 L128.74304731750007 56.232817963663635 L129.5548443160963 53.32653952198193 L128.74283711569143 50.2328179673457 L127.424 48.653999999999996 L73.836 3.283" stroke="none" stroke-width="0" fill="#f8d8c0"></path><path d="M73.836 3.283 C71.59846345143033 1.3885706452943776, 68.3195365474359 1.388570643955271, 66.082 3.2829999999999995 M66.082 3.2829999999999995 C49.79396610067961 17.073740031090843, 33.50593220135923 30.86448006218169, 12.495 48.654 C8.970106046205437 51.638703661644804, 9.998050230681375 57.31998152644687, 14.345326401331487 58.880277405256734 C14.995540875402455 59.113648123934524, 15.68117386120544 59.23297579715413, 16.372000000000003 59.23299999999999 M16.372000000000003 59.23299999999999 C57.32226906806743 59.23299999999999, 98.27253813613486 59.233, 123.547 59.233 C128.1658021506826 59.23283818828673, 131.05237832408707 54.232737059034406, 128.74283711569143 50.2328179673457 C128.39739569528376 49.63454428098502, 127.9512267636656 49.10042257828153, 127.424 48.653999999999996 M127.424 48.653999999999996 C112.12650211342164 35.702167936628584, 96.82900422684327 22.75033587325718, 73.836 3.283" stroke="#242424" stroke-width="1.575" fill="none"></path></svg>